<?xml version="1.0" encoding="utf-8"?>
<!-- Generator: Adobe Illustrator 22.0.1, SVG Export Plug-In . SVG Version: 6.00 Build 0)  -->
<svg version="1.1" id="Layer_1" xmlns="http://www.w3.org/2000/svg" xmlns:xlink="http://www.w3.org/1999/xlink" x="0px" y="0px"
	 viewBox="0 0 383 213.3" style="enable-background:new 0 0 383 213.3;" xml:space="preserve">
<style type="text/css">
	.st0{opacity:0.62;}
	.st1{opacity:0.23;fill:#67C8CF;}
	.st2{fill:#67C8CF;}
	.st3{opacity:0.45;fill:#67C8CF;}
	.st4{fill:#77A540;}
	.st5{fill:#435E5D;}
	.st6{fill:#8DC63F;}
	.st7{fill:#5084A1;}
	.st8{fill:#FFFFFF;}
	.st9{fill:#5793CE;}
	.st10{fill:#4C5F5E;}
	.st11{fill:#F3F2F9;}
	.st12{fill:#92938E;}
	.st13{fill:#FFFFFF;stroke:#F1F2F2;stroke-miterlimit:10;}
	.st14{fill:#929B9D;}
	.st15{fill:#405C64;}
	.st16{fill:#98A75A;}
	.st17{fill:#367386;}
	.st18{fill:#28646A;}
	.st19{fill:#396D7F;}
	.st20{fill:#4E5556;}
	.st21{fill:#64A0AC;}
	.st22{fill:#2B6054;}
	.st23{fill:#6A9AAB;}
	.st24{fill:#738E9C;}
	.st25{fill:#999587;}
	.st26{fill:#4690AB;}
	.st27{fill:#35626C;}
	.st28{fill:#796169;}
	.st29{fill:#6D7E8B;}
	.st30{fill:#798691;}
	.st31{fill:#70808B;}
	.st32{fill:#818592;}
	.st33{fill:#627988;}
	.st34{fill:#6C808F;}
	.st35{fill:#D4EAF9;}
	.st36{fill:#247A9B;}
	.st37{fill:#4D8491;}
	.st38{fill:#689AA1;}
	.st39{fill:#63919D;}
	.st40{fill:#AFAFAB;}
	.st41{fill:#848139;}
	.st42{fill:#CDBF9A;}
	.st43{fill:#818176;}
	.st44{fill:#3B676C;}
	.st45{fill:#898B7F;}
	.st46{fill:#277C9B;}
	.st47{fill:#1C4E59;}
	.st48{fill:#529195;}
	.st49{fill:#376E6C;}
	.st50{fill:#267379;}
	.st51{fill:#205369;}
	.st52{fill:#8BA2A9;}
	.st53{fill:#133C59;}
	.st54{fill:#062B40;}
	.st55{fill:#0A415B;}
	.st56{fill:#31758A;}
	.st57{fill:#5E90A9;}
	.st58{fill:#3B789C;}
	.st59{fill:#5395A8;}
	.st60{fill:#3A7C9D;}
	.st61{fill:#152E40;}
	.st62{fill:#77776C;}
	.st63{fill:#696A67;}
	.st64{fill:#8E938D;}
	.st65{fill:#848E8C;}
	.st66{fill:#4B636D;}
	.st67{fill:#3D3E3B;}
	.st68{fill:#60675F;}
	.st69{fill:#838378;}
	.st70{fill:#556A70;}
	.st71{fill:#4B88A0;}
	.st72{fill:#5A645D;}
	.st73{fill:#144A6E;}
	.st74{fill:#063444;}
	.st75{fill:#0D3F4F;}
	.st76{fill:#5F706D;}
	.st77{fill:#0E5165;}
	.st78{fill:#32656E;}
	.st79{fill:#0E566F;}
	.st80{fill:#5D5F5E;}
	.st81{fill:#565855;}
	.st82{fill:#343837;}
	.st83{fill:#2D2E2D;}
	.st84{fill:#5D605D;}
	.st85{fill:#2C2E2C;}
	.st86{fill:#2B2D2B;}
	.st87{fill:#23241F;}
	.st88{fill:#232423;}
	.st89{fill:#303130;}
	.st90{fill:#485B5B;}
	.st91{fill:#1D3F46;}
	.st92{fill:#1A3E45;}
	.st93{fill:#1B3C44;}
	.st94{fill:#1B5B6E;}
	.st95{fill:#1F484E;}
	.st96{fill:#377FA0;}
	.st97{fill:#2D3030;}
	.st98{fill:#262725;}
	.st99{fill:#CFD5D8;}
	.st100{fill:#EEE7F3;}
	.st101{fill:#D8C9B1;}
	.st102{fill:#566F32;}
	.st103{opacity:0.64;fill:#829681;}
	.st104{fill:#916150;}
	.st105{opacity:0.56;}
	.st106{fill:#7E6044;}
	.st107{fill:url(#SVGID_1_);}
	.st108{fill:url(#SVGID_2_);}
	.st109{opacity:0.22;fill:#1A4923;}
	.st110{fill:url(#SVGID_3_);}
	.st111{opacity:0.3;fill:url(#SVGID_4_);}
	.st112{fill:#55682E;}
	.st113{opacity:0.36;fill:#ADAA35;}
	.st114{fill:url(#SVGID_5_);}
	.st115{fill:url(#SVGID_6_);}
	.st116{opacity:0.52;fill:#917084;}
	.st117{fill:#6B7934;}
	.st118{opacity:0.22;fill:#ADAA35;}
	.st119{opacity:9.000000e-02;}
	.st120{fill:#ADAA35;}
	.st121{fill:url(#SVGID_7_);}
	.st122{fill:url(#SVGID_8_);}
</style>
<g>
	<g class="st0">
		<polygon class="st1" points="320.2,33.7 319.2,87.4 317.8,156.1 308.5,155.7 308.5,156 303.2,156.3 288.8,157.2 288.5,150.7 
			287.6,159 287.5,159.7 276.4,159.4 261.2,159 261.1,162.5 250.3,160 245.5,158.9 245.5,158.9 230.2,159.1 228.1,65 226.8,24.8 
			229.7,23.8 248.1,17.2 254.5,19.6 254.1,40.5 253.5,72.2 255.3,72.6 255.5,39.6 258.4,39.6 263.2,39.5 262.3,74.3 263.8,74.6 
			263,99.9 270.6,97.8 275.3,98.6 275.3,115.2 286.9,112.7 285.2,68.7 290.5,66.3 290.7,66.2 299.5,68.7 306.8,70.6 305.6,31.3 
			308.1,31.5 309,25.1 309.7,25.2 311,20.1 311.4,20.2 312.4,20.3 313.1,-3 313,20.4 313.2,20.5 314.5,20.7 316.2,26.4 317.1,26.6 
			318.3,33.3 		"/>
		<polygon class="st1" points="6.4,122.6 7.8,152.9 47.9,150.7 63.1,150.3 63.2,153.8 73.9,151.3 78.7,150.2 78.7,150.2 94,150.4 
			96.2,56.4 97.4,16.1 94.5,15.2 76.2,8.5 69.7,10.9 70.1,31.8 70.8,63.5 69,64 68.7,31 65.9,30.9 61.1,30.9 61.9,65.6 60.4,66 
			61.2,91.3 53.7,89.1 49,89.9 50.4,132.7 19.1,132.7 19.1,119.7 		"/>
		<polygon class="st1" points="208.9,140.3 207.2,170.6 160.4,168.4 142.7,168 142.5,171.5 130,169 124.3,167.9 124.3,167.9 
			106.4,168.2 104,74.1 102.5,33.8 105.9,32.9 127.3,26.3 134.9,28.6 134.4,49.6 133.7,81.3 135.8,81.7 136,48.7 139.4,48.7 
			145,48.6 144,83.3 145.8,83.7 144.8,109 153.6,106.9 159.2,107.7 157.5,150.4 194,150.4 194,137.4 		"/>
		<polygon class="st2" points="224.1,151.5 221.3,46.1 218.4,41.7 217,33.1 211.4,27.3 205.7,33.1 204.3,41.7 201.5,46.1 200.1,150 
					"/>
		<polygon class="st3" points="377.5,102.4 342.2,98 342.2,125.5 275.8,126.9 270.1,67.7 183.9,64.8 193.8,155.8 370.5,163 		"/>
	</g>
	<g>
		<path class="st4" d="M304.8,152.4H191.7c0,0-6.2-2.9-14.7-13.1C304.9,44.7,353.1,163,353.1,163L304.8,152.4z"/>
		<path class="st4" d="M133.7,172.2l-78.2-11.6c0,0-25.1,4.2-33.7-6.1c29-125.4,148.4,21.3,148.4,21.3L133.7,172.2z"/>
		<rect x="147.8" y="128.6" class="st5" width="5.5" height="24.2"/>
		<path class="st6" d="M98.6,157.9l46.8,0.2l153.6-8c0,0,56.8-4.7,66.6,9c20.4,28.4-12.4,64.1-139.2,12.5
			c-142.9,82.6-216.3-14-216.3-14L98.6,157.9z"/>
		<rect x="206.6" y="99.7" class="st7" width="59" height="53.4"/>
		<polygon class="st8" points="261.4,124 210.2,104 210.2,92 261.4,92 		"/>
		<g>
			<path class="st9" d="M219.8,89.5c-1.5-1-0.3-1.9-0.5-3.7c-0.5-3.2-0.2-6.4-0.4-9.6c-0.5-7-0.5-14.1-0.8-21.2c0-0.6,0-1.2,0.6-1.5
				c7.6,5.7,24.5,17.5,24.6,18.7c-0.1,1,0.3,1.8,0.8,2.4c1.5,1.5,2.5,3.4,2.9,5.5c0.3,1.6,1.5,1.5,2.4,2c0.6,0.4,1.5,0.6,1.2,1.6
				c-0.3,1-1.2,1-2.1,0.8c-0.5-0.2-1-0.5-1.5-0.8c-0.3-0.2-0.5-0.6-0.9-0.4c-0.8,0.3-0.9,0.3-0.7-0.7c0.4-1.6-3.9-2.9-5-3.4
				c-3.1-1.2-5.2-4.4-8.6-5c-1-0.2-1.3-1.8-2.3-2.3c-0.6-0.3-1-1-1.7-0.5c-0.6,0.3-0.5,1-0.4,1.6c0.1,5.5,7.5,9,12.7,11.2
				c1.5,0.6,2.1,2.5,3.4,3.6c2.1,1.9-0.2,3.6,2.2,5c1,0.6,2,1,1.3,2.6c-0.5,1,0.4,1.3,0.9,1.4c2.3,0.1,2.9,2.2,3.3,3.7
				c0.6,2,1.6,3.2,3.1,4.2c0.9,0.7,6.1,3.8,6.7,4.8C261.2,110,221.8,90.7,219.8,89.5z"/>
			<polygon class="st10" points="261.8,86.4 216.8,48 217.6,53.4 219.5,55.1 235.5,68.1 262.9,91.5 262.8,87.5 261.8,86.4 			"/>
			<path class="st11" d="M84.1,141.8c0.8-6,1.6-12,2.5-18c0.4-2.6,0.5-5.2,1.2-7.7c0.5-0.7,0.4-6.8,1.6-7.5c1.4-0.8,3.4-1.2,3.7-2.7
				c0.8-3.5,2.8-4.3,5.4-4.5c0.5-0.1,0.9,0.1,1,0.9c-0.4,1.4-1.5,1.7-2.4,2.2c-1,0.6-1.7,1.4-1.8,2.8c-0.5,3.9-1.2,7.7-1.5,11.6
				c-0.1,0.8-0.6,2,0.6,2.2c1,0.1,1.6-0.6,1.9-1.8c0.4-2,0.3-4,0.7-5.9c0.1-0.6,0.2-1.3,0.6-1.8c1.7-0.5,2.3,0,2.2,2
				c-0.2,2.6-0.3,5.2-1.1,7.6c-0.9,2.6-1.1,5.4-1.3,8.3c-0.4,4.7-1.2,9.3-2,13.9c-0.1,0.8-0.4,2.2-1.6,1.1c-0.7-2.6,0.1-5.1,0.3-7.6
				c0.2-2.2,0.6-4.3,0.8-6.4c0.1-0.7,0.3-1.7-0.5-1.9c-0.8-0.2-1.5,0.3-1.8,1.2c-0.1,0.4-0.2,0.8-0.2,1.2c-0.5,4.8-1.2,9.5-1.7,14.3
				c-0.4,4-0.7,4.3-3.9,4.3c-0.4,0-2.6-0.7-3-0.4C83.2,148.9,84,142.5,84.1,141.8z"/>
			<path class="st12" d="M82,149c0.8,0.2,1.7-0.3,2.4,0.4c-2.2,0-4.4,0.1-6.5,0.1c0-0.2,0-0.3,0-0.5c0.4,0,0.8,0,1.2,0
				C80.1,148.1,81,148.1,82,149z"/>
			<path class="st13" d="M97.3,106.8c-1.1-2.3-9.6,11.8-10.5,12.5c0,0,2.1-26.8,9-26.9c6-0.1,105.6-58.5,111.4-58.5
				c0.9,0,1.1,2.5,1.2,3.2c0.2,0.8-0.8,58.7-0.8,59.3c0.1,5.3,1.8,51.6,1.8,51.2c-0.7,2.8-27,3.8-29,2.8c-9.8-4.7-7,6-10.5-3.4
				c-4.8-13.2,2.5-75.6,2.5-75.6c-2.6-3.2-34.4,15.4-37.8,17.1C129,91.2,102.4,110.5,97.3,106.8z"/>
			<polyline class="st14" points="119,149.9 119,149.9 116.1,149.9 121.3,98.7 			"/>
			<polyline class="st14" points="121.3,98.7 123.4,96 119,149.9 			"/>
			<path class="st12" d="M93.9,144.1c-0.4,1.6-1,3.2-0.4,5c-2.7,0.3-5.4,0.9-8.2,0.5c0.7-0.8,1.6-0.4,2.3-0.4c1,0,1.6-0.4,1.8-1.8
				c0.3-3.3,0.8-6.7,1.2-10c0.3-2.7,0.9-5.3,0.9-8.1c0-1.2,2.7-2.7,3.6-2.1c0.6,0.4,0.5,1.2,0.4,1.8c-0.5,3.8-1,7.6-1.4,11.5
				C94,141.6,94,142.8,93.9,144.1z"/>
			<path class="st15" d="M119,149.9c0.7-3.9,0.7-7.9,1.2-11.8c0.7-6.6,1.4-13.3,2-19.9c0.1-0.6,0.1-1.2,0.1-1.7
				c0.5-2.6,0.5-5.4,0.8-8l0,0c0.3-1.7,0.3-3.4,0.4-5.1c0.1-0.7,0.2-1.6,0.9-1.8c0.7-0.1,0.8,0.8,0.9,1.4c0.3,1.3,1.3,1.3,2,1.9
				c0.7,0.8,1.3,1.8,0.9,3.1c-0.3,1-0.8,1.9-1.7,0.7c-0.5-0.7-0.6-0.8-0.8,0.1c-0.3,1.8-1.2,3.3-1.1,5.2c-0.9,5.5-1.2,11-1.7,16.5
				c-0.1,1.5-0.3,3-0.5,4.4c-0.6,3.5,0,7.2-0.8,10.7c-0.5,1.4-0.1,3.1-1,4.4C120.1,150.1,119.5,150.1,119,149.9z"/>
			<path class="st12" d="M95.5,149.1c0.2-0.2,0.6-0.3,0.6-0.6c0.6-3.3,1.7-6.4,2-9.8c0.2-2.4,1.1-4.6,2-6.7c0.2-0.6,0.6-1,1.1-0.4
				c0.4,0.5,0.9,0.4,1.4,0.4c1.1,0.7,0.6,1.5,0.1,2.4c-1.4,3.4-1.5,7.1-1.8,10.8c-0.1,1.5-0.1,3-0.8,4.3
				C98.5,149.5,97,149.9,95.5,149.1z"/>
			<path class="st16" d="M195,151.5c0.2,0.7,0.9,0.5,1.3,1c-2.1-0.7-4.4,0.5-6.5-0.7c-0.7-0.4-1.7,0.2-2.6,0.2
				c-6.2,0-12.5,0.2-18.7-0.1c-2.2-0.1-4,1.4-6.2,1.1c-1.5-0.2-3-0.2-4.3-1.2c-0.4-0.3-0.9-0.3-1.4-0.3c-1,0-1.9-0.1-2.9,0
				c-5.9,0.3-11.9-0.6-17.8-0.5c-0.9,0-1.8,0.1-2.7,0.7c-1.6,1-3.5,0.2-5.2,0.2c-0.5,0-0.6-0.8-0.8-1.3c0.1-0.2,0.3-0.4,0.5-0.5
				c0.9-0.4,1.8-0.1,2.7-0.2c0.4,0,0.7,0,1.1,0c1.1,0,2.2-0.1,3.3,0c4.6-0.1,9.1,0.1,13.7,0.2c6,0.2,12,0.7,18,0.6
				c7.8-0.1,15.6,0.5,23.4-0.4c0.7-0.1,1.5-0.1,2.3,0.1C193.2,150.4,194.4,150.1,195,151.5z"/>
			<path class="st17" d="M121,145.6c0.8-2.9,0.1-5.9,0.8-8.8c0.1-0.5,0.1-1.1,0.1-1.7c0.6-0.2,1.1,0,1.4,0.7
				c0.1,1.5-0.6,2.9-0.4,4.4c0,0.2-0.1,0.5,0,0.7c0.2-0.2,0-0.4,0-0.6c0-2.1,0.5-4,0.5-6.1c0.2-0.2,0.4-0.3,0.6-0.2
				c0.6,0.6,0.6,1.5,0.8,2.2c0.2,2.2-0.3,4.4-0.5,6.5c-0.1,1.1-0.2,2.1,0.1,3.1c0.1,1.4,0.8,3-0.5,4.2c-0.9,0.1-1.9,0.2-2.8-0.1
				C120.4,148.5,121.5,147.1,121,145.6z"/>
			<path class="st18" d="M111.5,149.8c0-0.1,0-0.2,0-0.3c-0.3-0.4-0.6-0.9-0.4-1.3c1-2.2,0.3-4.5,0.3-6.8c0.3-0.6,0.6-1.4,1.3-0.6
				c1.2,2.2,2.3,4.4,1.9,7.2c-0.1,0.6,0.3,0.9,0.6,1.2c0.1,0.1,0.1,0.3,0.1,0.4c0,0.2,0,0.2,0,0.2
				C114,150.1,112.8,150.1,111.5,149.8z"/>
			<path class="st19" d="M115.3,149.9c0-0.1,0-0.3-0.1-0.4c-1.1-3-0.5-5.8,0.6-8.5c0.4-0.2,0.7-0.3,1,0.1c0.1,3-0.1,6-0.8,8.9
				C115.8,149.9,115.6,149.9,115.3,149.9z"/>
			<path class="st20" d="M100.1,149.5c0.5-5,1.1-9.9,1.6-14.9c0-0.4,0-0.8,0.4-1c0.9,1.3,0.9,2.6,0,4c-0.6,1.4-0.6,3.1-0.7,4.6
				c-0.2,2.5-0.4,5-0.5,7.4C100.6,149.5,100.4,149.5,100.1,149.5z"/>
			<path class="st21" d="M123.8,150c0.5-1.3-0.1-2.7,0-4c-0.1-0.1-0.1-0.3-0.1-0.4c0-0.1,0.1-0.2,0.1-0.2c0.8-0.3,1.5-0.2,2,0.7
				c0.4,0.8,0.5,1.7,0.1,2.6c-0.3,0.6-0.3,1.2-0.8,1.7C124.7,150.4,124.2,150.6,123.8,150z"/>
			<path class="st22" d="M125.2,150.3c0-0.6-0.2-1.3,0.4-1.7c0.9-0.4,1.5,0.3,2.1,0.8c0.2,0.3,0.2,0.7,0,1c-0.1,0.1-0.3,0.1-0.4,0.2
				C126.5,150.5,125.8,150.4,125.2,150.3z"/>
			<path class="st23" d="M121,145.6c0.7,0.6,0.5,1.5,0.3,2.2c-0.2,0.7-0.3,1.4-0.3,2.2l-0.2,0.1l-0.2-0.1
				C120.6,148.5,120.6,147,121,145.6z"/>
			<path class="st24" d="M82,149c-1,0-1.9,0-2.9,0c0-1-0.1-2,0.9-2.4C81.7,146,82.3,146.7,82,149z"/>
			<path class="st25" d="M173.2,69.9c0-1.9-0.1-1.9-1.6-1.6c-2.1,0.4-76.7,36.9-76.9,38.3c-0.7,4.7-1.3,9.4-1.9,14.1
				c-0.1,1.1,0.3,1.4,1,1.2c0.7-0.2,1.3-0.4,2-0.5c0.6,0,0.9-0.6,1-1.3c0.3-2.9,0.6-5.7,0.8-8.6c0-0.7,0.3-1,0.9-1c0.7,0,1.3,0,2,0
				l0,0c0.7,0,1.4,0,2,0c0.1-0.1,0.1-0.2,0.2-0.3c-0.2-4.1,6-6.8,7.3-7c2.8-0.4,5.4-1.5,8.1-2.4c2.1-0.7,3.8-2.8,6.1-2.6
				c0.3,0,0.6,0,0.9,0c2.7-0.8,5.5-1.4,8-2.9c1.3-0.8,2.7-1.5,4.2-2c3.9-1.5,7.8-3.1,11.2-5.9c1.1-0.8,2.2-1.2,3.5-0.8
				c0.3,0.1,0.6,0.1,0.9,0.1c0.7,0,1.3-0.4,2-0.5c2.2-0.2,4.3-2.1,6.6-0.9c2.3-0.6,3.9-2.5,5.7-4.1c0.5-1.1,1.3-1.6,2.2-2
				c1.1-0.5,2.3-0.6,3.2-1.6C172.6,75,173.2,72.4,173.2,69.9z"/>
			<path class="st26" d="M171.2,133c0,2.1-0.3,3.5-1.7,3.8c-1.9,0.4-3.4-0.5-3.8-2.4c-0.3-1.3,0-2.6-0.1-3.9c-0.7-1.7-1-3.5-0.8-5.3
				c0.7-5.2,0-10.4,0.3-15.6c0.4-7,1-14,1.4-21c0.1-0.9,0.4-1.7,1-2.2c1.6-0.3,3.1-1.8,4.8-0.4C172.5,89.6,171.2,131.8,171.2,133z"
				/>
			<path class="st27" d="M172.3,85.9c-1.5-0.3-4.5,0.7-4.5,0.7v-7.4c0,0,3.2-1.8,5-1.6C172.9,80.3,172.5,83.1,172.3,85.9z"/>
			<path class="st28" d="M187.5,56.4c0-1,0.1-2.1,0.1-3.3c0-0.3,0.1-0.5,0.3-0.5c0.3-0.1,0.4,0.2,0.4,0.5c0,1.6,0.7,1.3,1.5,0.8
				c0.7-0.5,0.7-0.1,1.1,0.6c0.8,1.6,0.3,3.2,0.4,4.8c0,0.4-0.3,0.6-0.5,0.6c-0.1,0-0.2-0.3-0.3-0.6c-0.1-0.2,0-0.5,0-0.7
				c0-0.8-0.1-1.7-0.1-2.5c-0.4,0.8-0.2,1.6-0.2,2.5c0,0.6-0.2,1.3-0.7,1.3c-0.7,0-0.5-0.8-0.5-1.3c0-0.4,0-0.8,0-1.2
				c0-0.3,0.1-0.6-0.2-0.8c0,0.2-0.1,0.5-0.1,0.7c-0.2,0.7,0.4,2.1-0.5,2c-0.7,0-0.3-1.4-0.4-2.1C187.5,56.9,187.5,56.7,187.5,56.4z
				"/>
			<path class="st29" d="M193,67.6c-1.7,0-3.1,1.2-4.6,1.7c-0.7,0.2-1.3,0.6-1.9,0.7c-0.4,0.1-0.8-0.1-0.8-0.8
				c0-0.5,0.2-0.9,0.5-0.9c2.5,0.2,4.5-2.2,6.9-2.4c0.6,0,1.1-0.7,1.7-0.2c0.2,0.2,0.2,0.6,0.1,0.9C194.5,67.5,193.8,67.8,193,67.6z
				"/>
			<path class="st30" d="M186.8,63.7c0.1,1.2-0.2,1.9-1.1,2.4c-2.2,1.1-4.4,2.2-6.7,3c-0.3,0.1-0.6,0.5-0.9,0.2
				c-0.5-0.6,0.4-0.7,0.3-1.1c-0.1-0.7,0.5-0.7,0.6-1.2c0-0.3,0.3-1.1,0.4-0.1c0.2,1.6,1,1,1.4,0.5c0.8-0.9,2.3-0.8,2.4-2.7
				c0.1-0.8,0.5-0.3,0.8,0c0.8,0.6,1.4,0.6,1.5-0.8c0-0.2-0.1-0.8,0.4-0.3c0.1,0.1,0,0.8,0.4,0.3c0.2-0.2,0.1-0.9,0.2-0.9
				C187.1,62.8,186.5,63.6,186.8,63.7z"/>
			<path class="st31" d="M203.6,62c0.1,0.9-0.4,1-0.7,1.2c-2,0.8-4,1.5-5.9,2.6c-0.5,0.3-0.9,0.4-1.1-0.4c-0.2-1,0.4-0.9,0.9-1.2
				c1.8-1,3.7-1.3,5.5-2.4C202.5,61.6,203.4,60.9,203.6,62z"/>
			<path class="st32" d="M184.7,70.3c-0.1,0.4-0.3,0.5-0.5,0.7c-2.5,1.5-5.3,1.8-7.8,3.3c-0.3,0.2-0.5,0-0.6-0.4
				c0-0.2,0.1-0.5,0.2-0.7c0.1-0.1,0.2-0.2,0.3-0.2c2.5-1.1,5.1-2.2,7.6-3.3C184.4,69.5,184.6,69.6,184.7,70.3z"/>
			<path class="st30" d="M192.9,63c-1.2,1.1-2.5,1.7-3.9,2c-0.9,0.1-1.5-0.1-1.4-1.4c0-0.5-0.5-1.1,0-1.3c0.5-0.2,0.4,0.7,0.5,1.1
				c0.3,0.8,0.7,0.6,1.1,0.2c0.6-0.6,1.1-1.5,2.1-0.7c0.3,0.2,0.9-1,1.2-1.7c0.1-0.3,0-0.8,0.3-0.8c0.3,0,0.2,0.5,0.2,0.8
				c0,0.6,0,1.2,0,1.7L192.9,63z"/>
			<path class="st33" d="M201.4,58.7c-0.1,0.2-0.2,0.4-0.4,0.5c-0.7,0.6-1.5,0.8-2.1,1.8c-0.4,0.7-1.3,0.1-1.7-0.4
				c-0.2-0.2,0.1-1.1,0.9-1.5c0.9-0.5,1.8-0.5,2.6-1C201.2,58,201.4,58.2,201.4,58.7z"/>
			<path class="st34" d="M193,62.9c0.3-1.3,0.9-2.3,1.7-3.2c0.3-0.4,0.5-0.7,1-0.4c0.5,0.3,0.7,0.8,0.8,1.3c0.2,0.7-0.3,0.9-0.7,1
				c-0.9,0.3-1.6,0.9-2.2,1.6c-0.2,0.2-0.5,0-0.7-0.3L193,62.9z"/>
			<path class="st35" d="M112.9,111.4c-0.6-0.6-10-1.2-10.1-1.1c-0.1-0.1-5.2-1.5-5.2,1.3c1.1-0.5-5.3,35.8-4.1,37.5
				c0.7,0,1.3,0.1,2,0.1c0.6,0.3,1-0.2,1.1-0.7c0.4-1.4,1-2.7,1.3-4.2c0.6-3,0.8-6,1.7-8.9c0.6-1.9,2.2,2.3,2.1,2.5
				c-0.6,1.1-2.8,12.3-2.3,12.1c1.7-0.5,6.7-0.3,8.4-0.2c1.3,0,2.5,0.7,3.8,0.2c0.1-0.2,0-0.4-0.2-0.6c-0.5-0.3-0.9-0.4-1.1-1.4
				c-0.5-2.5,0.2-4.8,0.2-7.2c-0.1-2.2,0.9-4.1,0.8-6.2c0-1.9-0.1-3.8,0.4-5.7c0.6-1.9,0.7-3.8,0.2-5.8c-0.1-0.1-0.2-0.3-0.3-0.4
				c1-0.2,0.9-1.3,1-2.1c0.2-1.6,0.4-3.1,0.6-4.7C113.3,114.3,113.7,112.8,112.9,111.4z"/>
			<path class="st36" d="M111.6,122.5c0.8-1.2,0.4-2.7,0.6-4.1c0.4-2.3,0.4-9.4,1.9-9.3c0.8,0.1,1.6,0.1,2.3-0.4
				c1.4-0.1,2.6,0.2,3.5,1.7c0,4.6-0.8,9-1.2,13.5c-0.3,3.5-0.6,7-0.9,10.6c-1.4,2.3-4.5,2.5-6.5,0.4c-0.5-1.2-0.3-2.4,0.4-3.2
				c1.2-1.5,0.8-2.4-0.5-3.2C111.9,126.6,111.5,124.5,111.6,122.5z"/>
			<path class="st37" d="M111.2,134.5c2.2,1.5,4.4,1.6,6.5,0c-0.3,2.2-0.2,4.4-0.8,6.5c-0.3,0-0.6,0-0.9,0.1c-1.2,0.1-2.4,1-3.6-0.1
				c-0.6-0.6-0.4,0.6-0.8,0.6c-0.6,0.1-1.2,0.1-1.7-0.6c-0.5-2.3,0.7-4.3,0.8-6.5C110.9,134.3,111,134.3,111.2,134.5z"/>
			<path class="st38" d="M109.9,141c0.6,0.1,1.3-0.3,1.7,0.6c-0.1,0.8,0.2,1.4,0.4,2.1c0.3,1.1,0.7,2.4-0.3,3.3
				c-0.8,0.8,0.1,1.7-0.3,2.5c-0.5,0-1,0.1-1.4,0c-1-0.1-1.2-0.6-0.4-1.5c0.6-0.7-0.5-0.7-0.3-1.5
				C109.8,144.8,109.8,142.9,109.9,141z"/>
			<path class="st39" d="M111.2,134.5c-0.1,0-0.3,0-0.4,0c0.2-2-0.4-4.1,0.4-6c0.7,0.2,1.6-0.5,2,0.6c0.4,1.2,0.1,2.1-1,2.8
				C111.5,132.4,111,133.4,111.2,134.5z"/>
			<path class="st40" d="M213.5,150.6c0.2-2,0.7-2.7,2-2.5c2.1,0.4,4.2,1,6.3,0.5c0.3-0.1,0.5,0.2,0.7,0.5c-1.2,1.5-2.6,1.1-4,0.8
				c-1.6-0.4-3.2-0.5-4.6,0.7C213.8,150.5,213.6,150.6,213.5,150.6z"/>
			<path class="st41" d="M236.5,155.6c1.1-1.4,2.5-0.3,3.6-0.3c2.1,0,4.3,0.7,6.4,0.8c0.6,0,0.3,0.6,0.2,0.9c-0.8,0-1.6,0-2.4,0
				c-0.8-0.4-1.8,0.4-2.6-0.4C240.1,156.3,238.3,155.9,236.5,155.6z"/>
			<path class="st42" d="M241.8,156.6c0.9,0,1.8-0.4,2.6,0.4C243.5,157.1,242.5,158.3,241.8,156.6z"/>
			<path class="st43" d="M124.3,97.5c0.3,0,0.5,0,0.8,0c6.8,1.9,13.1-1,19.5-3.4c1.3-0.5,2.5-1,3.4,0.7c0.2,0.5,0.2,1.1,0,1.6
				c-0.2,0.6-0.6,0.9-1,1.2c-2.6,1.9-5.1,3.8-7.5,6.1c-2.4,2.3-5.1,2.2-7.9,2.4c-0.7,0.1-1.5,0-2.3,0.1c-0.8,0-1.6-0.2-2.3-0.8
				c-0.2-0.4-0.5-0.5-0.9-0.5c-1.3,0.2-1.8-0.4-1.6-2c0-0.3,0.2-0.8-0.2-1.1c-0.1,0.4-0.3,0.7-0.4,1.1c-0.5,1.8-0.3,3.7-1,5.4
				c0-1.2,0-2.3,0-3.5c0.4-1.6,0.2-3.2,0.2-4.8C123.3,99.1,123.4,98.1,124.3,97.5z"/>
			<path class="st44" d="M119.8,110.5c-1.1-0.5-2.2-1-3.3-1.5c-0.7,0.6-1.4,0.4-2.1,0.2c-1.8-0.5-3.7-0.2-5.5-0.4
				c-1.7-0.2-1.9,1.9-3.1,2.3c-1,0.1-1.9-0.6-2.9-0.6c-1-3.7-0.6-4.7,2.3-5.7c4.5-1.5,9.1-1.3,13.6-1.1c0.7,0,1.3,0.4,1.6,1.3
				C120.3,106.9,120.1,108.7,119.8,110.5z"/>
			<path class="st45" d="M120.6,105.1c-0.3-0.2-0.6-0.5-0.9-0.5c-4.8,0-9.6-0.4-14.3,1c-2.2,0.7-2.3,0.8-2.4,3.7c0,0.4,0,0.8,0,1.2
				c-0.1,0-0.3,0-0.4,0c-0.1-0.4-0.2-0.8-0.3-1.2c-0.7-2-0.4-3.2,1.1-4.3c2.1-1.6,4.5-2.3,6.9-2.5c2.5-0.2,4.9-1.1,7.3-2.2
				c1.6-0.7,3.3-1,4.6-2.6c0.5-0.6,1.4-0.1,2.2-0.2c-0.7,2-0.3,4.2-0.8,6.2c-0.1,0.5,0,1-0.4,1.3c0-1,0-2,0-3
				c-0.5-0.5-0.4-2.4-1.6-1C120.6,102.2,120.6,103.6,120.6,105.1z"/>
			<path class="st43" d="M123.1,108.5c0,2.7,0.2,5.5-0.8,8C122.2,113.8,122.5,111.1,123.1,108.5z"/>
			<path class="st25" d="M121.4,101c0.1-0.5-0.1-1.3,0.5-1.4c0.6-0.1,0.9,0.3,1,0.9c0.1,0.5,0.1,1,0.1,1.5
				C122.5,101.7,122.2,100.9,121.4,101z"/>
			<path class="st46" d="M123,135.5c-0.4,0.1-0.8-0.2-1.1-0.5c0.5-6.1,1.1-12.1,1.6-18.2c0.1-1.1,0.2-2.3,0.8-3.3
				c0.4,0.4,0.5,0.9,0.6,1.5c0.4-0.1-0.6,1.8,0.6,0.6c0.5-0.5,0.9,0.1,1.3,0.4c0.6,0.5,1.4,0.8,1.6,1.8c-0.3,4,1,8-0.4,12
				c-0.7,1.2-0.8,3-2.4,3.4c-0.6,0.2-1.4-0.1-1.8,0.9c-0.1,0-0.3,0-0.4,0.1C123.1,134.5,123.5,135.2,123,135.5z"/>
			<path class="st47" d="M128,117.6c-0.5-0.8-1.7-0.1-2.2-1.5c-0.1-0.5-0.2,0.4-0.3,0.6c-0.2,0.3-0.2,1-0.6,0.9
				c-0.4,0-0.5-0.7-0.6-1.1c-0.1-1-0.1-2-0.1-2.9c-0.4-2.4,1.1-4.3,1.3-6.5c0-0.4,0.4-0.9,0.9-0.8c0.3,0.1,0.3,0.5,0.3,0.8
				c0.1,0.6-0.3,1.4,0.4,1.7c0.1,0,0.3-0.2,0.4-0.4c0.4-0.7,0.5-1.3,0-2c-0.2-0.2-0.3-0.5-0.4-0.8c0.8,0,1.6,0,2.5,0
				c1.1,0.8,2.4-0.4,3.5,0.7c-0.4,2.4-0.5,4.9-2.3,6.5c-1.1,0.9-1,2.5-1.6,3.7C128.9,117,128.6,117.5,128,117.6z"/>
			<path class="st48" d="M127.6,150.4c0-0.3-0.1-0.5-0.1-0.8c-0.7-1.2-0.5-2.3,0-3.4c0.3-0.4,0.6-0.7,1.1-0.8c0.4,0,0.7,0.4,1.1,0.5
				c0.5,0.1,0.9,0.2,1.3,0.7c0.1,0.2,0.2,0.5,0.2,0.7c0,1.1-1.4,1.9-0.6,3.3C129.5,150.6,128.6,150.6,127.6,150.4z"/>
			<path class="st49" d="M135.5,146.6c-1.4,0.9-0.7,2.5-1,3.8c-1.1,0-2.2,0-3.3,0c-0.2-0.3-0.2-0.7-0.1-1c0.8-0.9,2-1.2,2.6-2.6
				C134.1,146.1,134.9,145.8,135.5,146.6z"/>
			<path class="st50" d="M131.3,149.5c0,0.3,0,0.6,0,0.9c-0.3,0-0.5,0-0.8,0c0-0.2,0-0.3,0-0.5c0.2-1.5-1.2,0.2-1.2-0.8
				c0.1-0.9,1.3-0.5,1.3-1.6c0-0.3,0.1-0.6,0.2-1c0.7-0.5,1-0.1,1.2,0.6C132.3,148.2,132,149,131.3,149.5z"/>
			<path class="st51" d="M124,145.6c0,0.1-0.1,0.3-0.1,0.4c-0.7-1-0.4-2.2-0.2-3.3c0.2-2.3,0.7-4.5,0.7-6.8c-0.1-0.4,0-0.5,0.3-0.5
				c0.3,0.2,0.5,0.6,0.6,1C125.3,139.6,125.4,142.8,124,145.6z"/>
			<path class="st52" d="M124.4,135.6c0,0.1-0.1,0.3-0.1,0.4c-0.6-0.5-0.3-1.3-0.5-2c-0.4-1.5,0.7-1.3,1.3-1.5
				c0.5,0.4,1.4,0.3,1.3,1.2C126.2,135,125.2,135.2,124.4,135.6z"/>
			<path class="st53" d="M123,135.5c0.1-0.5-0.1-1.1,0.4-1.4c0.5,2.3-0.5,4.5-0.3,6.9c0,0.2-0.1,0.6-0.2,0.6c-0.4,0-0.3-0.4-0.3-0.7
				C122.5,139.1,122.9,137.3,123,135.5z"/>
			<path class="st54" d="M112.4,141.1c1.2,0.2,2.4-1.3,3.6,0.1c-0.5,2.8-0.8,5.5-0.8,8.4c-0.8,0.1-1.6,0.5-1.3-1.4
				c0.3-1.8,0.6-3.8-1-5.2C112.5,142.6,112.5,141.7,112.4,141.1z"/>
			<path class="st55" d="M128,146c-0.5,1.1-0.4,2.4-0.5,3.6c-0.8,0.3-1.3-0.6-2-1c0.8-0.8,0-1.7,0-2.5c0.7-4.9,0.4-9.9,1.4-14.8
				c0.1-0.5,0.2-0.9,0.6-1.3c0.3-3.1,0.8-6.1,0.1-9.3c-0.2-1,0.2-2.1,0.3-3.1c0.2-0.5,0.4-0.9,0.8-1.1c0.6,2.2-0.1,4.5,0.2,6.7
				c0.1,0.6,0.6,1,0.9,1.5c1.4,3.6,0.1,7.2-0.5,10.6c-0.3,1.8-0.4,3.3,0.6,4.8c0.2,2.2,0.2,4.3-0.8,6.2c-0.4-0.1-0.3-0.5-0.4-0.9
				c-0.3-0.3-0.2-0.7-0.2-1.1c0-0.2,0-0.3,0.1-0.4c-0.2,0.2,0,0.5-0.1,0.7C128.5,145.2,128.3,145.6,128,146z"/>
			<path class="st9" d="M255.7,140c-3-1.4-27.2-15.3-27.7-15.9c-0.3-0.7-0.8-1.5,0.4-1.6c0.2,0.1,0.4,0.2,0.6,0.3
				c-0.2-0.1-0.4-0.2-0.5-0.3c-0.7-0.3-1.2-0.9-1-1.9c0.3-1.1,1.1-1.2,1.9-1c2,0.6,4.1,1.3,6.1,2.2c1.9,0.9,3.6,1.9,5.6,2.6
				c0.6,0.2,1.4,0.6,1.8-0.3c0.4-0.9-0.4-1.2-1-1.6c-0.5-0.3-1-0.7-0.6-1.3c0.8-1.6-0.2-1.9-1-2.2c-3.6-1.4-7-3.2-10.5-4.9
				c-2.3-1.1-5.8-1.3-7.1-3.6c4.6-2-3.1-2.3,1.6-3.8c0.9-0.3,18.4,6.2,19,6.6c1.4,0.9,6.6,7,7.4,8.3c1,1.5,15.7,10.7,16.4,14.9
				c0.1,0.8,0.2,1.7-0.5,2.3c-0.7,0.5-1.3,0.1-1.9-0.3c-3-2-6.3-3-9.4-4.7c-0.6-0.4-4-2.4-4.1-2.4
				C250.5,131.4,255.9,139.7,255.7,140z"/>
			<path class="st56" d="M127.5,130c-0.3,1.7-0.5,3.3-0.5,5c0,3.6-0.2,7.2-0.9,10.7c0,0.1-0.4,0.2-0.5,0.3c-0.5-0.5-1.1,0-1.6-0.4
				c0.3-2,0.4-4,0.6-6c0.2-1.3,0.5-2.7-0.2-4c0-0.6,0.5-0.8,0.8-1c1.2-0.8,0.9-1.4,0-2.1c0.9,0,1.6-0.2,1.7-1.6
				C126.8,130.4,127.1,130.1,127.5,130z"/>
			<path class="st9" d="M236.2,69.1c2.7,2,24.9,20.3,25.3,21c0.2,0.8,0.6,1.7-0.6,1.5c-0.2-0.2-0.3-0.3-0.5-0.4
				c0.1,0.2,0.3,0.3,0.5,0.4c0.7,0.5,1.1,1.1,0.7,2c-0.4,1-1.3,1-2,0.6c-1.9-1-3.9-2.1-5.7-3.4c-1.7-1.2-3.4-2.6-5.2-3.6
				c-0.6-0.3-1.3-0.9-1.8,0c-0.5,0.9,0.2,1.3,0.7,1.7c0.4,0.4,0.9,0.8,0.5,1.4c-1,1.4,0,1.9,0.7,2.4c3.4,2,6.5,4.5,9.8,6.8
				c2.1,1.5,5.6,2.3,6.5,4.9c-4.8,1.1,2.7,2.9-2.1,3.5c-0.9,0.1-17.3-9.6-17.9-10.1c-1.3-1.2-5.6-8.1-6.3-9.6
				c-0.8-1.7-14.1-13.5-14.3-17.9c0-0.8,0-1.7,0.8-2.1c0.7-0.4,1.3,0.1,1.9,0.6c2.7,2.5,5.9,4.2,8.7,6.5c0.6,0.5,3.6,3.1,3.8,3.1
				C240.2,78.6,235.9,69.3,236.2,69.1z"/>
			<path class="st57" d="M262.8,106c-0.2-0.7-1-0.3-1.2-1.2c-0.8-3.3-3.1-4.6-5.3-6.1c-1.3-0.9-2.6-2.3-3.9-3c-1.7-0.9-3.2-2-4.8-3
				c-1.2-0.7-1.2-1.4-0.1-2.3c0.2-0.1,0.4-0.2,0.3-0.5c0-0.3-0.2-0.4-0.4-0.4c-0.5-0.1-1-0.1-1.2-0.8c-0.3-0.8-0.4-1.7,0-2.4
				c0.3-0.6,1-0.5,1.5-0.3c1.4,0.3,2.5,1.3,3.6,2.2c2.4,2,5.2,3.2,7.7,5.1c0.1,0,0.1,0.1,0.2,0.1c0.6,0,1.3,1,1.9,0.2
				c0.7-0.8-0.2-1.5-0.3-2.2l0,0c1.1-0.1,0.2-1,0.4-1.4c1.7-0.4,2.5,1.5,3.7,2.2c0.5,0.8,0.6,1.7,0.9,2.6c0.2,2.3,0.5,4.5,0.8,6.8
				c0.2,1.3,0.4,2.6-0.4,3.7C265.1,106.6,263.9,105.8,262.8,106z"/>
			<path class="st58" d="M234.9,146.1c0-4.5,0-4.5-3.7-4.5c-1.8,0-3.5,0-5.3,0c-0.1-0.1-0.2-0.2-0.2-0.2c-0.2-0.4-0.3-1-0.3-1.5
				c0-0.4,0-0.8,0-1.2c0.1-2-0.1-4-0.4-6c0-0.3,0-0.5,0-0.8c0-1.5-0.1-2.9,0-4.4c0-0.4,0-0.8,0-1.1c0-0.4,0-0.7,0.1-1.1
				c0.1-0.2,0.2-0.4,0.3-0.6c0.1-0.1,0.2-0.1,0.3-0.2c0.3,0,0.7-0.1,1,0c0.6,0.2,1.1,0.6,0.3,1.3c-1,0.8-0.6,1.5,0,2.2
				c1,1,1.7,2.4,2.6,3.4c1.2,1.4,3.1,2,4.8,2.6c1.8,0.7,3.6,0.6,5.4,0.8c2.2,0.2,3.9,1.7,6,2.1c0.8,0.1,1.6,0.8,2.5,0.2
				c0.4-0.2,0.8-0.2,0.9,0.5c0.1,0.6-0.2,1.2-0.6,1.1c-2.2,0-3.9,2.2-6.3,1.7c-1.9-0.4-3.8,0.3-5.6,0.8c-1.1,0.3-1.5,0.8-1.4,2.1
				C235.3,144.3,235.6,145.3,234.9,146.1z"/>
			<path class="st59" d="M171.1,151.2c-1.9,1.1-3.8,0.7-5.7,0.6c-0.4-2.7-1-5.4-0.9-8.2c0.2-4.5,0.2-9.1,0.4-13.6
				c0-1.2-0.2-3.4,1.4-2.7c0.4,1.2,0.3,2.4,0.3,3.7c-0.1,3,0.4,3.9,2,4c2.7,0.3,2.7,0.2,2.7-4.4c0-1.3,0-1.7,0-0.5
				C171.1,130.7,171.1,151.2,171.1,151.2z"/>
			<path class="st60" d="M219.7,110c0-1.5,0-3,0-4.5c0.2-0.2,0.5-0.4,0.8-0.3c2.9,1.1,5.8,2.4,8.7,3.6c0.6,0.2,1.2,0.6,1.2,1.5
				c-1.8,0.4-3.6,0.8-5.4,1.2c-0.9,1.9-2.4,1.8-4,1.6C219.4,112.9,220.1,111.1,219.7,110z"/>
			<path class="st61" d="M263.8,125.7c-3.4-2-43.7-19.6-44.1-20.2c-0.2-1.3-0.7-1.7,1.1-0.9c3.3,1.5,42.4,18.7,42.9,18.9
				C264,123.7,263.8,125.7,263.8,125.7z"/>
			<path class="st62" d="M220.5,121.1c-0.2-2.5-0.3-5-0.5-7.6l0,0c1.6,0,3.3,0,4.9,0.5c0.1,2.3,0.1,4.7,0.4,7
				c-0.2,0.2-0.4,0.4-0.6,0.5C223.3,121.7,221.9,122.2,220.5,121.1z"/>
			<path class="st63" d="M220.8,134.6c-0.4-3.5-0.4-7.1-0.2-10.6c1.5-1.2,3.1-1.4,4.8-1c0.1,0.5,0.1,1,0.2,1.5l-0.2,0
				c-0.6,0.1-1.2,0.1-1.8,0.3c-0.2,0.1-0.4,0.1-0.6,0.2c0.2-0.1,0.4-0.1,0.6-0.2c0.6-0.1,1.2-0.3,1.8,0.2c0,0.4,0,0.8,0,1.2
				c-0.7,0.9-1.9,0.2-2.6,1.2c0.7,1.1-1.2,1.4-0.5,2.5c0,0.2-0.1,0.4-0.2,0.6c-0.4,0.4-0.7,0.9-0.7,1.6c0,0.3,0,0.6,0,1
				c0,0.3,0,0.6-0.1,1c-0.1,0.2-0.1,0.4-0.3,0.6C220.9,134.5,220.9,134.6,220.8,134.6z"/>
			<path class="st64" d="M266.1,94c0.4-0.2,0.6-0.3,0.9,0.4c0.6,2.1,0.2,4.3,0.7,6.3c0.2,1,0.3,2.1,0.4,3.1c0.2,1.1-0.2,1.8-1.2,1.6
				C266.5,101.7,265.2,97.9,266.1,94z"/>
			<path class="st65" d="M225,114.1c-1.7,0.7-3.3,0.8-4.9-0.5c-0.6-1.1-0.4-2.3-0.4-3.5c0.3,0.3,0.4,0.7,0.4,1.1
				c0,1.1,0.4,1.4,1.2,1.4c1.3,0,2.6-0.2,3.7-1C225,112.4,225,113.2,225,114.1z"/>
			<path class="st66" d="M266.1,94c-0.1,2.9,0.5,5.7,0.8,8.5c0.1,1,0,2,0,3c-0.3,0-0.5-0.1-0.8-0.1c0.1-3.7-0.9-7.3-0.9-10.9
				c-0.2-0.4-0.2-0.8,0.2-1C265.7,93.3,265.9,93.7,266.1,94L266.1,94z"/>
			<path class="st64" d="M266.1,94c-0.5-0.3-0.9-0.4-0.9,0.5c-0.6-0.5-0.1-1.6-0.8-2c-1.3-2.7-1.3-3.7,0.1-5.4c0.3,0,0.5,0,0.8,0
				C265.9,89.3,265.5,91.7,266.1,94z"/>
			<path class="st67" d="M225.3,123c-1.5,0.9-3.2,0.6-4.8,1c0-0.3,0-0.6,0-0.9c1.6-1.5,3.4-1.7,4.8-0.5
				C225.4,122.7,225.4,122.9,225.3,123z"/>
			<path class="st63" d="M225.3,122.6c-1.6-0.3-3.2-0.1-4.8,0.5c0-0.4,0-0.7,0-1.1c1.4-1,3-0.1,4.4-0.9c0.1,0,0.2,0,0.4,0
				C225.3,121.6,225.3,122.1,225.3,122.6z"/>
			<path class="st68" d="M167,80.9c0,0.5,0,1.1,0,1.6c-0.5,2.5-0.4,5.1-0.4,7.6c-0.7,0.9-1.4,0.6-2.2,0.2c-1.7-0.9-1.9-0.6-2.2,1.6
				c-0.2,2.1,0,4.3,0.1,6.4c0,2.5,0.1,5.1-0.2,7.6c-0.2,1.2-0.3,2.3-0.2,3.5c0.2,1.5,0.7,3-0.2,4.5c-0.2,0.2-0.3,0.3-0.5,0.3
				c-2.7,0.4-2.7,0.4-2.7-2.8c0-0.2,0.1-0.5,0.2-0.7c0.9-1.4,1.9-2.8,1.7-4.9c-0.1-0.6,0.2-1.4-0.2-1.6c-0.6-0.4-0.8,0.7-1.3,0.9
				c-1.6-1.8-3.3,0.8-4.8-0.3c0.2,0.6-0.1,1-0.4,1.3c-0.4,0.5-0.9,0.8-1.5,0.5c-0.7-0.3-0.6-1.1-0.4-1.7c0.4-1.8-0.6-4.1,1.5-5.3
				c0.6-0.3,0-0.3-0.1-0.4c-1.7-2.3-1.3-6,1-7.9c1.8-1.5,3.9-2.4,5.2-4.6c0.6-1,1.3-1.8,2.4-1.9C163.5,83.6,165.3,82.3,167,80.9z"/>
			<path class="st69" d="M147.8,95c-0.8-1.2-1.6-0.9-2.7-0.4c-4.8,2.3-9.8,3.8-14.9,4.4c-1.8,0.2-3.4-0.8-5-1.5
				c2.9-0.8,5.8-1.5,8.5-3.2c2.4-1.5,5-2,7.5-3.3c2.5-1.4,5.2-2.3,7.4-4.5c0.9-0.8,2.4-1.7,3.7-0.5c0.5,1.9,0,3.7-0.2,5.6
				c-0.2,1.9,0,3.8-0.1,5.7c0,0.4,0,0.9-0.1,1.3c-0.5,3.6-0.8,7.3-0.7,11c-0.3,6.9-0.6,13.7-1.2,20.6c-0.1,0.9-0.1,1.8-0.8,2.4
				c-1.2-0.7-0.9-2.1-0.9-3.3c0.2-6.3,0.7-12.6,1-18.9c0.3-6.2,0.7-12.4,0.9-18.7c0-0.5,0.1-1.1-0.4-1.3c-0.5-0.1-0.6,0.6-0.8,1
				C148.6,92.6,149.3,94.5,147.8,95z"/>
			<path class="st69" d="M161.7,85c-0.7,0.7-1.4,1.3-2.1,2c-1.7,1.8-3.7,3.2-5.6,4.7c-0.4,0.3-0.7,0.8-1.2,0.2
				c-0.6-2-0.3-3.9,0.2-5.8c2.1-1,4.4-0.8,6.4-2C160.5,83.5,161.2,83.9,161.7,85z"/>
			<path class="st68" d="M153.1,86c0.4,0.7,0.4,1.4,0.2,2.3c-0.3,1.2-0.1,2.4-0.1,3.7c-1.3,0.7-0.6,2.1-0.9,3.2
				c-0.2,0.8,0.4,2.1-0.8,2.3c-0.2-3.6,0.3-7.1,0.4-10.7c0-0.4,0.2-0.6,0.4-0.8C152.5,86,152.8,86,153.1,86z"/>
			<path class="st70" d="M160.9,117.3c0.1,0,0.3,0,0.4,0c0.8,0.7,0.4,3.3,1.7,2.8c0.9-0.3,0.1-2.3,0.2-3.5c0.1-1.2,0-2.4,0.2-3.5
				c0.2-4.6,0.3-9.3,0.6-13.9c0.1-1.7,0.3-3.4,0.4-5.2c0.1-2,2.1-8.8,2.7-11.6c0,1.1,0.3,68.9,0,68.9c-2.1-0.8-4.6-3.3-5-5.3
				c-0.1-0.6,0-1.1,0-1.7c1.1-3.9,0.5-7.9,0.6-11.9c-0.1-0.8-0.5-0.9-1.1-0.9c-0.6,0-1.2,0-1.5-1
				C159.7,126.1,159.9,121.7,160.9,117.3z"/>
			<path class="st71" d="M105.8,111.1c0.9-3,0.9-2.9,3.8-3.1c2.4-0.1,4.6,0.6,6.9,1c-0.4,1.2-1.3,1.2-2,0.9
				c-1.5-0.8-1.8,0.1-1.7,1.6C111,111.5,106.3,111.8,105.8,111.1z"/>
			<path class="st72" d="M147.7,96.5c-0.3,4.5-0.6,9-0.9,13.5c-0.7,0.5-1.7-0.1-2.3,1.2c-0.3,0.6-0.8,0.1-0.9-0.4
				c-0.4-2-1.7-2.2-3-2.4c-1-0.1-1.9-0.8-3-0.8c-0.5,0-1-0.1-1.5-0.2c-0.5-0.1-1-0.4-1.5-0.3c-0.7,0-1.3-0.2-1.8-0.8
				c-0.9-1.2-2.4,0.2-3.3-1c1.9,0.3,3.8-0.3,5.8-0.2c1.8,0.1,3.3-1.8,4.8-3C142.6,100.2,145.1,98.2,147.7,96.5z"/>
			<path class="st73" d="M123.5,128c0.1-1.3,0.5-2.7,0.4-4.2c0-0.3,0.1-0.7,0.4-0.7c0.5,0,0.4,0.6,0.4,0.9c-0.1,1.6-0.5,3.2-0.4,4.9
				c0,0.4-0.2,0.9-0.5,0.9c-0.4-0.1-0.2-0.7-0.3-1C123.5,128.5,123.5,128.3,123.5,128z"/>
			<path class="st74" d="M132.9,106.5c0.7,0,1.4,0.1,2.1,0.1c1.4,1.9,0.5,4.2,0.7,6.3c0,0.3-0.2,0.6-0.2,0.9c0,3.2-0.9,5.3-3.9,5.4
				c-1.4,0-2.1,1.3-2.2,3c0,0.7,0.1,1.8-1,1.8c0.1-2.5-0.3-5,0.4-7.5c0.2-1,0.1-2.6,0.6-3c1.8-1.4,2.2-3.7,3.1-5.7
				C132.6,107.4,132.9,107,132.9,106.5z"/>
			<path class="st10" d="M148.2,151.6c-0.2-3.6,0.3-7.2,0.7-10.7c0.1-1.3,0.1-2.7,0.2-4.1c0.5-0.5,0.4-1.3,0.4-2
				c0.2-6.6,1.1-13.1,0.9-19.7c0-1.2,0.5-2.3,0.4-3.5c0.4-4,0.4-8,0.8-12c0-0.4,0-0.7,0-1.1c0.7-0.7,0.4-1.7,0.4-2.5
				c0-1.2-0.1-2.4,0.4-3.4c0.2-0.4-0.2-1.2,0.4-1.1c0.1,0,0.2,0.8,0.5,1c2.2-1.8,4.1-4.1,6.5-5.5c-0.1,0.5,0.2,1-0.3,1.4
				c-1.6,1.1-3.1,2.7-4.7,3.9c-1.9,1.4-2.5,4.3-1.9,7c0.2,1.1,0.7,0.9,1.3,0.6c0.3-0.2,0.7-0.4,0.9,0.1c0.1,0.5-0.3,0.8-0.6,1
				c-0.3,0.3-0.6,0.5-0.9,0.6c-1,0.5-1.3,1.6-1,2.9c0.1,0.7,0.3,1.3,0,2.1c-0.2,0.5-0.8,1.3-0.1,1.6c0.6,0.2,1.4-0.3,1.6-1.3
				c0.1-0.4-0.2-0.9-0.2-1.3c0-0.2,0.2-0.5,0.4-0.5c0.3-0.1,0.3,0.2,0.3,0.5c0.1,1.8,0.8,1,1.4,0.6c0.2-0.1,0.3-0.3,0.5-0.5
				c0.9-1.1,1.7-1.3,2.2,0.7c0,0.2,0.3,0.3,0.5,0.5c0.8,1.1,0.5,2.5,0.3,3.7c-0.2,0.9-0.5,1.8-0.3,2.8c0,0.2,0,0.4,0,0.5
				c-0.6,3.1-0.2,6.3-0.4,9.4c-0.3,3.9,0,7.9-0.9,11.7c-0.2,0.8-0.2,1.6,0,2.4c1.2,5-0.3,9.4-2,13.7l0,0c-1.9,0.6-3.9-0.2-5.8,0.4
				C149.3,151.6,148.7,151.6,148.2,151.6z"/>
			<path class="st75" d="M128.4,126c0.8-1.3,0.1-3,0.7-4.5c0.4-0.8,0.4-1.5,1.4-1.4c1.1,0.1,2.2-1.2,3.5-0.6
				c0.3,0.2,0.5-0.7,0.6-1.3c0.1-3.6,0.8-7.2,0.7-10.9c0-0.3-0.2-0.5-0.3-0.7c0.5-0.2,0.8,0.2,1.2,0.5c0.9,0.6,1.3,1.6,1.1,2.9
				c-0.1,1,0.1,1.6,0.7,2.1c0.4,1.3,0.6,2.7,2,2.6c0.4-0.1,0.6,0.6,0.7,1.2c-0.2,7.5-0.9,14.8-1.3,22.3c-0.1,3.2,0.3,6.5-0.5,9.6
				c-0.3,1.1,0.1,1.8,1.1,1.7c0.5-0.1,1-0.1,1.4,0.3c0.3,0.4,0.3,0.8,0,1.2c-1.8,0-3.5,0.1-5.3,0.1c-0.9-1.9-0.9-4.3-0.6-6.1
				c1.1-5.2,0.8-10.6,1.2-15.9c0.5-2.5,0.1-5.4,1.4-7.7c0.2-0.3,0.4-0.6,0-0.9c-0.3-0.3-0.7-0.7-1.1-0.4c-1.5,0.9-3,1.5-4.6,1.8
				c-1.2,0.2-1.2,2.3-1.9,3.4c-0.2,0.4-0.4,0.8-0.7,1.1c-0.1,0.1-0.2,0.1-0.2,0.2C129.2,126.5,128.7,126.7,128.4,126z"/>
			<path class="st76" d="M155.6,151.1c-0.4-2.4,1.1-4,1.3-6.2c0.3-2.5,0.7-4.8,0-7.3c-0.4-1.5-0.6-3.2,0.5-4.5
				c0.3-0.3,0.5-0.9,0.2-1.5c-0.6-1.1-0.2-2.2-0.1-3.3c0.1-1.7,1.1-3.5-0.1-5.2c1.2-2.9-0.3-6.5,1.4-9.3c0.1,0.4,0.3,0.9,0.2,1.3
				c-0.3,1.8,0,2.2,1.1,0.9c0.4-0.5,0.7-0.3,0.8,0.5c-0.1,2.8,0.2,5.6-0.4,8.4c-0.4,1.8,0.6,3.5,0,5.3c0.2,0.6,0.4,1.2,0.4,1.8
				c-0.1,1.9-0.4,3.8-0.5,5.7c0,0.7-0.1,1.4-0.7,1.9c-0.1,0.1-0.3,0.1-0.4,0.1c2.4,1.6,0.8,4.4,0.8,6.4c0,2.5,0.1,4,2.3,3.8
				c0.3,0,0.5,0.3,0.6,0.6C160.6,151.6,158.1,150.8,155.6,151.1z"/>
			<path class="st77" d="M137.5,126.5c-0.3,4,0,8-0.8,11.9c-0.5,2.7-0.4,5.4-0.5,8.1c-0.2,0-0.5,0-0.7,0.1c-0.9-0.1-1.7-0.1-1.6,1.4
				c0.1,0.8-0.4,0.9-0.9,1c-0.6,0.1-1.2,0.3-1.8,0.5c0.2-1.1,1.3-2.3-0.5-2.9c-0.5-0.1-1.1-0.1-1.6-0.2c-0.2-2.2,0.5-4.2,0.4-6.4
				c0-0.7,0.1-1.4,0-2c0-0.7,0-1.3,0.4-1.8c1.5-1.1,1.9-2.6,1.5-4.7c-0.3-1.6-0.1-3.3,0-4.9c0.1-1.2,0.4-2.5,1.6-2.4
				c1.2,0.1,1.2,1.4,1.1,2.5c-0.1,3.2-0.3,6.4-1.1,9.6c-1.6,1.2-2,3-1.8,5.1c0,0.4,0.1,0.9,0.6,0.8c0.3-0.1,0.1-0.6,0.1-0.9
				c-0.2-2,0.2-3.7,1.4-5.2c0.6-0.8,1.5-1.1,2-2.1c0.4-0.8,0.6-1.6,0.3-2.6C134.8,128.5,135,127.9,137.5,126.5z"/>
			<path class="st78" d="M141.5,146.4c0-0.3,0-0.6,0-0.9c-0.4-0.5-0.7-1.2-1.1-1.8c-1.3-1.8-0.9-3.2,0.9-3.7c0.2-0.1,0.4,0,0.6,0.1
				c-0.2-0.1-0.4-0.1-0.6-0.2c-1.1-0.4-1-1.2-0.3-2c0.7-0.8,0.9-1.8,0.8-2.9c-0.1-1.6,0.1-3.2,0.2-4.7c0.3-4,0-3.4,3.5-2.8
				c0.3,3.2-0.4,6.4-0.6,9.6c-0.1,2.1-0.2,4.1-0.2,6.2c0,1.5-0.3,2.7-1.6,3.2C142.7,146.5,142.1,146.5,141.5,146.4z"/>
			<path class="st77" d="M128,146c0.1-0.9,0.7-1.8,0.1-2.8c-0.1-0.3-0.1-0.7,0.2-0.8c0.3,0,0.5,0.4,0.5,0.7c0,0.8,0,1.6,0,2.5
				C128.6,145.7,128.3,145.9,128,146z"/>
			<path class="st79" d="M133,136.5c-0.1-2.8,0.7-5.4,0.7-8.2c0-0.7,0.1-1.5,0.1-2.2c0-0.6,0.2-1.5-0.7-1.5c-0.7,0-0.9,0.6-0.9,1.4
				c0,2.1-0.3,4.3,0,6.4c0.4,3.1,0.4,3.2-2.1,4.2c-0.8,0.7-0.4,1.3,0,2c0.8,0.9,0,1.1-0.4,1.5c-1.3-0.8-1.5-2-1-3.5
				c0.5-1.5,0.7-3,0.6-4.6c0-0.8-0.2-1.7,0.8-2c0.4-0.1,0.5-0.7,0.3-1c-1.2-1.3-0.5-2.9-0.7-4.4l0,0c1.4,0.4-0.3-1,0.4-1
				c0.3-0.7,0.5-1.3,0.8-2c0.7-2,1.1-1.9,3-2.1c1-0.1,2.5-0.4,3.2-1.7c0.5-0.8,0.8-0.6,1,0c0.4,1,2.1,1.9,0.1,3
				c-0.2,1.9-0.5,3.9-0.7,5.8c-0.4,0.2-0.3,1-0.6,1.2c-1.2,0.9-2.4,1.7-0.4,3.3c0.6,0.5-0.3,3.4-1.2,4.4c-0.5,0.6-1.2,0.4-1.5,1.1
				C133.5,136.8,133.2,136.8,133,136.5z"/>
			<path class="st57" d="M260.8,91.5C260.1,91.4,260.4,90.8,260.8,91.5L260.8,91.5z"/>
			<path class="st58" d="M221.3,88.8c0-0.4,0-0.7,0-1.1c0-0.2,0.1-0.7,0.1-0.7c0.4,0,0.2,0.4,0.3,0.7c0,0.3,0,0.7,0,1
				c-0.1,0.6,0.2,1.3-0.2,1.9C221.1,90,221.4,89.3,221.3,88.8z"/>
			<path class="st80" d="M221,134.2c0-0.4,0-0.8,0-1.2c1.4-1.2,2.9-1.5,4.4-0.4c0.4,2.2,0.6,4.4,0.4,6.6c-0.7,0.8-1.5,0.6-2.3,0.7
				c-0.8,0-1.5,0.1-2,0.9c-0.2,0.1-0.4,0.1-0.6-0.1c0-2-0.1-4-0.1-5.9c0.1,0,0.1-0.1,0.2-0.1c0.8-0.3,1.6-0.4,2.4-0.4
				C222.5,133.9,221.8,134.5,221,134.2z"/>
			<path class="st81" d="M220.9,132.1c-0.1-0.9-0.1-1.7,0.8-2.1c0.2,0.3,0.6,0.5,0.9,0.5c-0.2-0.2-0.4-0.3-0.6-0.6
				c0-0.1-0.1-0.1-0.1-0.2c-0.3-0.4-1.2-0.1-1-1.2c0.1-0.8,0.7-0.5,1.2-0.6c0.9-0.2,0.4-0.4,0-0.5c0.9-1.5,2.1-1,3.2-0.5
				c0.2,1.7,0.2,3.4,0.1,5.1C223.9,131.7,222.4,132.8,220.9,132.1z"/>
			<path class="st82" d="M221.3,140.5c-0.2-1.1,0.3-1.5,1.1-1.5c1.1,0,2.2,0,3.3,0c0,0.3,0,0.6,0,0.9
				C224.4,141,222.9,141.4,221.3,140.5z"/>
			<path class="st83" d="M225.3,125c-1.3,0.4-2.5,0.7-3.8,0.6c-0.2,0-0.4-0.1-0.4-0.4c-0.1-0.3,0.2-0.5,0.3-0.5c1.3,0,2.6-1.2,4-0.1
				C225.4,124.7,225.3,124.8,225.3,125z"/>
			<path class="st84" d="M221.3,140.5c1.5-0.1,2.9-0.6,4.4-0.5c0,0.5,0,1,0.1,1.5c-0.1,0-0.3,0-0.4,0c-1.4-0.3-2.7-0.4-4.1,0
				c-0.5-0.1-0.4-0.6-0.4-1C221,140.5,221.2,140.5,221.3,140.5z"/>
			<path class="st85" d="M225.3,127c-1.1,0.3-2.2-0.3-3.2,0.5c-0.4,0-1,0.1-1-0.4c-0.1-0.7,0.5-0.5,0.9-0.6c1.1-0.2,2.2-0.6,3.4-0.4
				C225.3,126.4,225.3,126.7,225.3,127z"/>
			<path class="st86" d="M220.9,132.1c1.5,0.2,2.9-1.3,4.4-0.1c0.1,0.2,0.1,0.3,0,0.5c-1.5-0.1-2.9,0.3-4.4,0.4
				C221,132.6,221,132.4,220.9,132.1z"/>
			<path class="st67" d="M225,121.1c-1.3,1.3-2.9,0.9-4.4,0.9c0-0.3,0-0.6,0-0.9C222,121.1,223.5,121.1,225,121.1z"/>
			<path class="st87" d="M221.3,141.5c1.4-0.8,2.7-0.8,4.1,0C224,141.7,222.7,141.7,221.3,141.5z"/>
			<path class="st88" d="M221,134.2c1-0.2,1.9-0.8,3-0.6c0.3,0,0.8-0.1,0.8,0.4c0.1,0.6-0.4,0.5-0.7,0.5c-1,0-2,0-3.1,0
				C221,134.4,221,134.3,221,134.2z"/>
			<path class="st89" d="M222.1,130c0.5,0,0.9,0,1.4,0c0.3,0,0.8-0.2,0.7,0.4c0,0.5-0.5,0.6-0.8,0.5c-0.6-0.1-1.6,0.6-1.7-0.9
				C221.9,130.1,222,130,222.1,130z"/>
			<path class="st90" d="M166.6,90c0,0.2,0,0.4,0,0.5c-2.3,2.2-1.7,5.2-1.8,8.1c-0.1,2.9-0.7,5.7-0.5,8.6c0.1,1.2,0.2,2.3-0.5,3.2
				c-0.9-0.1-1.6-0.9-2.4-1c-0.3-2.1,0.5-4.1,0.4-6.2c0-1.3-1-2.7,0.3-3.9c0.1-0.1,0.1-0.9-0.1-1.2c-1.5-2.8,0-5.6-0.2-8.4
				c-0.1-1,2.1-1.5,2.9-0.3C165.3,90.6,165.9,90.2,166.6,90z"/>
			<path class="st91" d="M161.3,109.5c1.2-1.2,1.8,0,2.4,1c-0.2,2.3,0.4,4.5,0,6.8c-0.2,1.1-0.3,1.7-0.9,0.2c0-0.1-0.2-0.3-0.3-0.3
				c-1.7,0.6-1.3-0.9-1.3-2c0-0.4,0-0.8,0-1.2C162.1,112.5,161.6,111,161.3,109.5z"/>
			<path class="st76" d="M158.8,111c-0.6-0.1-1.4-0.2-0.8-1.3c0.9-1.5,0.7-3.1,0.8-4.7c0.1-0.3,0.1-0.7,0.2-0.9
				c0.4-0.6,0.8-1.6,1.5-1.3c0.6,0.3,0.3,1.3,0.3,2C161,107.3,160.9,109.7,158.8,111z"/>
			<path class="st68" d="M151.4,98.5c0.2,3.5-0.2,6.9-0.4,10.4c0,0.2-0.2,0.4-0.3,0.6c-0.3-3.5,0.3-6.9,0.4-10.4
				C151.1,98.9,151.3,98.7,151.4,98.5z"/>
			<path class="st92" d="M162.5,140c-2,0-2,0-2-2.6c0-1.3-0.4-2.9,1.4-3.2c0.6-0.1,1.1-0.2,0.9,0.9c-0.3,1.1-0.1,2.3-0.2,3.4
				C162.5,139,162.5,139.5,162.5,140z"/>
			<path class="st93" d="M163.3,127.5c-1.1,2.1-1.7,2.1-2.9,0c-0.4-0.3-0.4-0.7,0-1c0.6,0,1.2-0.1,1.8-0.4
				C163.3,125.7,163.4,126.6,163.3,127.5z"/>
			<path class="st94" d="M145.6,129.9c-0.8-0.4-1.6,2.2-2.6,0.1c-0.1-0.3-0.2,0.5-0.2,0.7c0.2,2.9-0.7,5.7-0.2,8.7
				c0.1,0.7,0.3,2.6-1.1,2.8c-0.3,0-0.6,0.1-0.5,0.6c0.1,0.4,0.4,0.4,0.7,0.5c0.3,0,0.5,0,0.8,0c0.1,0,0.4,0.1,0.4,0.2
				c0.1,0.3-0.1,0.5-0.3,0.5c-0.6,0.3-1.2,0.4-1.7,0.7c-1,0.7-1,1.8,0.1,2.4c1.2,0.6,0.5,1.9,0.7,2.8c-0.3,0-0.6,0-0.8,0.1
				c-2.8,0.9-3.1,0.6-2.3-3.1c0.3-1.6,0.2-3.2,0.3-4.8c0.3-4.3,0.3-8.6,0.6-12.9c0.2-2.9,0.8-5.7,0.5-8.6c-0.1-1.8,0.5-3.4,0.4-5.2
				c2.1-0.6,3.8-3.4,6.2-1.7C146.4,119.2,146.2,124.5,145.6,129.9z"/>
			<path class="st95" d="M146.5,113c-0.7-0.3-1.5,1.7-2.2-0.1c-0.2-0.5-0.6-0.2-0.7,0.3c0,1.7-0.9,1.6-1.8,1.1
				c-0.6-0.3-1,0.1-1.6,0.1c-0.1-0.1-0.2-0.3-0.3-0.3c-2.2,0.3-2.2,0.3-2.2-2.7c-0.3-1.5-0.3-3,0-4.5c1.6,0.4,3.2,0.8,4.8,1.2
				c1,0.2,1.5,0.9,1.4,2.2c0,0.2,0.1,0.4,0.2,0.6c0.1-0.1,0.2-0.3,0.2-0.4c0-2.8,1.2-1.3,2-0.7c0.1,0.1,0.3,0.1,0.4,0.1
				C146.9,111.1,146.9,112.1,146.5,113z"/>
			<path class="st74" d="M137.9,107.1c0.6,1.5,0.6,3,0,4.5c-0.9,0.4-1.9,0.9-1.2-1c0.6-1.5-0.1-2.4-0.5-3.5
				C136.8,107.1,137.3,107.1,137.9,107.1z"/>
			<path class="st68" d="M156,107c0.1,1.4-0.5,2.4-1.1,3.5c-0.6,1.2-1.5,0.1-2.2,0.1c-0.7,0-0.8-0.7-0.8-1.4c-0.1-1,0.2-1.6,1-1.9
				c0.7-0.3,1.4-0.5,2-1.1C155.9,105.1,155.9,106.1,156,107z"/>
			<path class="st55" d="M130.1,123.5c0,0.1,0.1,0.2,0.1,0.2c0.6,0.5,1,1.2,0.6,2.1c-0.3,0.7-0.6,0.6-0.7-0.2c0-0.4-0.1-0.8-0.4-1
				C129.7,124.1,129.7,123.8,130.1,123.5z"/>
			<path class="st55" d="M133,136.5c0.3,0,0.5,0,0.8,0c-1.1,1.6-1.6,3.4-0.9,5.3c0.2,0.6,0,0.6-0.2,0.9c-0.4,0.8-1,0.2-1.5,0.2
				c-0.4,0-0.7-0.3-0.5-0.8c0.5-1.3,0.1-2.6,0.3-3.9C131.3,137,131.7,136.2,133,136.5z"/>
			<path class="st96" d="M263.2,105.4c0.1,2.4,2.2,4.7,1.2,7c-5.1-2.5-28.4-12.9-33.3-15.8c-1.8-1.1-8.7-5.3-10.3-6.1
				c-0.6-0.3-1.3-0.5-1.3-1.5c-0.2-1.7,0-3.4-0.4-5c-0.9-1.8,0.2-3.6,0.1-5.5c1.9,3,4.9,3.9,7.4,5.8c3.3,2.6,7.1,4.1,10.4,6.6
				c2.5,1.9,5.4,3.1,8,4.8C245.6,96,263,104.3,263.2,105.4z"/>
			<path class="st55" d="M130.1,138.5c-1.4-0.4-0.8-1.7-0.7-2.6c0-0.3,0.5,0.2,0.7,0.6C130.1,137.2,130.1,137.9,130.1,138.5z"/>
			<path class="st97" d="M222.9,138.5c-0.3,0-0.7,0-1-0.1c-0.2,0-0.4-0.1-0.4-0.5c0-0.3,0.2-0.4,0.4-0.4c0.5-0.1,1.1-0.1,1.6-0.1
				c0.6,0.1,1.4-1.1,1.6,0.1c0.1,0.7-1,0.7-1.7,0.9C223.3,138.5,223.1,138.5,222.9,138.5C222.9,138.5,222.9,138.5,222.9,138.5z"/>
			<path class="st98" d="M223.2,135.5c0.4,0,0.7,0,1.1,0c0.2,0,0.4,0,0.4,0.3c0,0.3-0.2,0.5-0.4,0.5c-0.3,0.1-0.7,0.2-1,0.2
				c-0.6-0.1-1.8,0.4-1.8-0.4C221.6,135.1,222.7,135.8,223.2,135.5z"/>
			<path class="st99" d="M219.7,146.3c-0.5,0.3-9.5-1.1-11.7-1c0.6-1.6-1.2-94.4-1.8-97.2c-0.2-1,0-14.7,0.3-14.7
				c4.9,0.4,11.7,8.6,13.1,10.2C219.9,45.7,220.2,145.9,219.7,146.3z"/>
		</g>
		<polygon class="st100" points="266.2,153.1 262.8,153.3 259.8,87.3 263.2,87.1 		"/>
		<polygon class="st99" points="268,153 266.5,153 263.5,87.1 268.2,90.4 		"/>
		<path class="st8" d="M134.8,95.4l0.8-8.9c0,0,3.6-2.2,3.6-1.1c0,1.4-4,64.9-4,64.9l-5.4-1.5L134.8,95.4L134.8,95.4z"/>
		<path class="st8" d="M105.3,107.1l0.5-7.1c0,0,2.2-1.7,2.2-0.9c0,1.1-2.5,50.1-2.5,50.1l-3.3,0.4L105.3,107.1L105.3,107.1z"/>
		<path class="st6" d="M271.7,160.1H4.8c0,0,10.5-26,139.1-13.1c121-41.5,231,21.9,216.3,13.1H271.7z"/>
		<path class="st101" d="M137.3,148.1c1.5-3.8,3.5,0.2,12.3,2.4c12.7,3.1,82.2,3.9,111.9,14c19.1,6.5,22.5,26.5,22.5,26.5
			s-46.5-12.9-49.7-16.3c-5.3-5.6-16.7-6.7-28.2-8.5C167.1,159.9,135.2,153.4,137.3,148.1z"/>
	</g>
	<g>
		<path class="st102" d="M50.7,119.3c0,0,6,8,12,7s4-3,4-3s20,6,26,0c6-6-6-2-6-2s7-2,6-4s-8-3-8-3l-28-10l-12,6L50.7,119.3z"/>
		<path class="st103" d="M74.7,155.3c-3-3,5-4,6-4s11,3,13,4s13-3,17,0s6,4,2,6S77,161,77,161l-16.3,2.2v-3l16-1c0,0-11.2,0-11.1-2
			C65.7,155.3,74.7,155.3,74.7,155.3z"/>
		<path class="st104" d="M74.5,127c0,0.3-2.4,1.1-5.2,2.1c-3.7,1.4-7.9,3.1-8,4.4c-0.2,2.3-0.6,7.2-0.6,7.2l0.7,9.7l1.5-1.8
			l5.1,14.7l-3.8-0.2l-4.1-0.2l-8.6-0.4l1.8-9.2l-0.5-5.5l1,0.7L51.5,137v-4.7l1.1,1l-0.9-1.7l-1.8-3.3c0,0-11.8-3.5-15.1-5.7
			c-0.2-0.1-0.3-0.2-0.4-0.3c-0.8-0.7-1.1-1.5-1.2-2.3c0-1.6,1.2-3.1,1.6-3.3c0.5-0.3-1.6-6.3-1.6-6.3l1.1,0.8c0,0,1,5,1.7,5.5
			c0.7,0.4-1.8,1.7-1.6,3.5c0,0.3,0.1,0.6,0.3,0.9c0.2,0.2,0.5,0.5,0.9,0.8c3.4,2,14.3,4.2,16.1,4.2c0.1,0,0.2,0,0.2,0
			c0.2-0.1,0.4-0.5,0.7-1c0.2-0.3,0.4-0.7,0.6-1.2c0.7-1.7,1.5-3.8,1.5-4.1c0-0.5-4.2-6.7-4.2-7.7c0-0.2,0-0.5,0-0.8
			c0.1-1.2,0.3-2.8,0.3-2.8l0.4,2.8l0.1,0.9c0,0,6.4,4,7,5c0.4,0.6-1.1,4.3-2.2,7.2c-0.7,1.7-1.2,3.2-1.1,3.7
			c0.2,1.2,1.2,3.9,1.2,3.9l2.2,4.2v-1.6l1.4,2.7c0,0,0.1-3.5,0.4-4c0.2-0.4,4.7-2.5,8.2-4.4c2-1.1,3.6-2.1,4-2.7
			c0.9-1.5-1.2-6.7-1.3-7.1l1.5,2C72.7,120.9,74.4,126.4,74.5,127z"/>
		<g class="st105">
			<path class="st106" d="M34.4,120.1l-1.3-0.2c0-1.6,1.2-3.1,1.6-3.3c0.5-0.3-1.6-6.3-1.6-6.3l1.1,0.8c0,0,1,5,1.7,5.5
				C36.7,117,34.2,118.3,34.4,120.1z"/>
			<path class="st106" d="M58.5,117c0.4,0.6-1.1,4.3-2.2,7.2l-3-0.6c0.7-1.7,1.5-3.8,1.5-4.1c0-0.5-4.2-6.7-4.2-7.7
				c0-0.2,0-0.5,0-0.8c0.1-1.2,0.3-2.8,0.3-2.8l0.4,2.8l0.1,0.9C51.4,112.1,57.8,116.1,58.5,117z"/>
			<path class="st106" d="M74.5,127c0.1,0.2-2.4,1.1-5.2,2.1l-0.8-0.4c2-1.1,3.6-2.1,4-2.7c0.9-1.5-1.2-6.7-1.3-7.1l1.5,2
				C72.7,121,74.4,126.5,74.5,127z"/>
		</g>
		
			<linearGradient id="SVGID_1_" gradientUnits="userSpaceOnUse" x1="182.8726" y1="157.8317" x2="197.9107" y2="188.8163" gradientTransform="matrix(1 -1.300000e-03 1.300000e-03 1 -90.634 -74.7615)">
			<stop  offset="0" style="stop-color:#DCD726"/>
			<stop  offset="1" style="stop-color:#007C40"/>
		</linearGradient>
		<path class="st107" d="M85.1,72.6c0,0-3.5-3.9-2.1-4.7c1.4-0.8,2.5,3,2.5,3S85,69.1,86,69.1c1,0,0.8,3.1,0.8,3.1s3.1-1.6,3.9,0.8
			C91.4,75.4,87.4,74.1,85.1,72.6z"/>
		
			<linearGradient id="SVGID_2_" gradientUnits="userSpaceOnUse" x1="172.2477" y1="162.9886" x2="187.2858" y2="193.9732" gradientTransform="matrix(1 -1.300000e-03 1.300000e-03 1 -90.634 -74.7615)">
			<stop  offset="0" style="stop-color:#DCD726"/>
			<stop  offset="1" style="stop-color:#007C40"/>
		</linearGradient>
		<path class="st108" d="M89.2,86c-1.4,2.8-8.1,3.3-13.5,0.3c-5.2-3-2.5-6.1-2.4-6.3c0,0-0.3,0.3-0.6,0.6c-1.1,1-4,0.4-4.9-0.9
			c-1.1-1.6,3.2-0.9,3.5-1c-0.2,0.1-3.3-1.1-3.5-2.1c-0.2-1.1,5.1,0.4,5.1,0.4s-7.1-3.2-4.8-8.8c2.3-5.5,9.2,7,9.3,7.2
			c-0.1-0.1-0.3-4.4,1.8-5.5c3.3-1.8,4.4,9.7,4.4,9.7s1.4-4.2,3-1.5c0.4,0.7,0.5,1.5,0.3,2.1c-0.5,1.6-2.3,2.8-2.3,2.8
			S90.6,83.2,89.2,86z"/>
		<path class="st109" d="M89.2,86c-1.4,2.8-8.1,3.3-13.5,0.3c-5.2-3-2.5-6.1-2.4-6.3c0,0,1.4-3.1,2.6-3.4c2.3-0.6,0.4,3.9,0.4,3.9
			s2.8-4.4,4.9-4.6c2.1-0.2,1.4,5.6,1.4,5.6s2-2.9,3.6-2.2c0.4,0.2,0.3,0.5,0.4,0.8c-0.5,1.6-2,2.8-2,2.8S90.6,83.2,89.2,86z"/>
		<linearGradient id="SVGID_3_" gradientUnits="userSpaceOnUse" x1="58.0064" y1="73.8592" x2="61.751" y2="150.455">
			<stop  offset="0" style="stop-color:#DCD726"/>
			<stop  offset="1" style="stop-color:#007C40"/>
		</linearGradient>
		<path class="st110" d="M92.2,105.4c1-0.4,1.9-0.3,2.2,0.8c1,3-3.9,7.3-4,7.4c0.1-0.1,3.4-2.7,3.4-1.1c0,1.6-2.4,4.6-14.2,7.1
			c-11.8,2.6-13.6-4.9-13.6-4.9s-3.5,2.1-8.6,1.9c-5.1-0.2-10.3-2.5-10.3-2.5s-2,3-3.1,2.5c-1.1-0.5,2.4-3.6,2.4-3.6
			s-7.1,1.8-14.7,1s-13.5-4.9-13.8-5.7s4.8-0.6,4.8-0.6s-7.5-1-7.8-2.7c-0.3-1.5,8-0.3,9.3,0c-0.6-0.1-2.7-0.7-6.1-3.4
			c-0.6-0.4-1-0.9-1.4-1.4c-2.6-3.2-2.4-7.4-1-9.9c1.7-2.8,14.7,4,14.7,4s-7.5-9.9-3.4-11c4-1.1,10.8,9,11,9.3
			c-0.1-0.2-3.7-6.3-1-7.3c1.3-0.5,2.6,1.6,3.5,3.8c0.1-0.6,0.4-0.9,1.1-1c2.9-0.1,2.8,5.3,2.8,5.3l2.6-1.6c0,0-0.3-6.3-0.3-6
			c0,0.3-13-5.1-3.7-9.2c7.2-3.2,16.3,3,20,6c-2.2-2-5.7-5.3-4.6-6.2c1.6-1.3,8.3,5.3,8.4,5.4c-0.1-0.1-6.6-8.1-0.6-8.5
			c6-0.4,8.8,15.7,8.8,15.7s0.6-5.6,2.5-4.9c1.9,0.7,0.5,5,0.5,5.2c0.2-0.4,6.6-17.5,21-7.1c1,0.7,1.8,1.4,2.4,2.2l0,0
			C107.7,91.8,98.1,100.9,92.2,105.4z"/>
		<path class="st109" d="M92.2,105.4c1-0.4,1.9-0.3,2.2,0.8c1,3-3.9,7.3-4,7.4c0.1-0.1,3.4-2.7,3.4-1.1c0,1.6-2.4,4.6-14.2,7.1
			c-11.8,2.6-13.6-4.9-13.6-4.9s-3.5,2.1-8.6,1.9c-5.1-0.2-10.3-2.5-10.3-2.5s-2,3-3.1,2.5c-1.1-0.5,2.4-3.6,2.4-3.6
			s-7.1,1.8-14.7,1s-13.5-4.9-13.8-5.7s4.8-0.6,4.8-0.6s-7.5-1-7.8-2.7c-0.3-1.5,8-0.3,9.3,0c-0.6-0.1-2.7-0.7-6.1-3.4
			c-0.6-0.4-1-0.9-1.4-1.4c3.7,1.8,10.4,4.8,13.7,4.2c4.7-0.8,1.2-6.8,3.3-7.1c2.1-0.3,0.8,4.2,0.8,4.3c0-0.1,3.2-7.9,8.6-6.7
			c5.3,1.1,2,5.9,2,5.9c0.1-0.1,4.9-5.6,7.2-4.6c2.3,0.9,0.6,4.7,0.6,4.7c0.1,0,22-15.7,25.2-4.2c0,0.1,0.3,0.1,0.4,0.2
			c0.8-2.4,3.3-9.8,6-9.8c2.3,0,1.9,6,1.8,7.1c2.7-5.5,8.5-15,15.1-9.9l0,0C107.7,91.8,98.1,100.9,92.2,105.4z"/>
		<linearGradient id="SVGID_4_" gradientUnits="userSpaceOnUse" x1="36.9573" y1="150.7402" x2="86.6111" y2="142.6216">
			<stop  offset="0" style="stop-color:#D6D478"/>
			<stop  offset="0.1698" style="stop-color:#9D9C62"/>
			<stop  offset="0.4701" style="stop-color:#55553E"/>
			<stop  offset="0.7183" style="stop-color:#2C2D24"/>
			<stop  offset="0.9016" style="stop-color:#10110E"/>
			<stop  offset="1" style="stop-color:#010101"/>
		</linearGradient>
		<polygon class="st111" points="64.1,163.1 62.7,163 59.7,154 58.3,151.2 59.4,163.5 51.4,162.5 53.2,153.3 52.7,147.8 53.7,148.5 
			51.5,137 51.5,132.3 52.6,133.2 51.7,131.5 55.5,135 58,147 59,144.1 		"/>
		<path class="st112" d="M85.8,163.9H61.2l-0.7,1.4l-10.6-1.4l-0.7-0.7c0,0-4.9-3.5-3.5-4.2c1.4-0.7,4.7,2.6,4.9,2.8
			c-0.1-0.3-2.1-4.9-1.4-4.9c0.7,0,2.1,4.2,2.1,4.2s0-3.3,1.1-5.8c0.1-0.2,0.1-0.3,0.2-0.5c0.7-1.4,1.9-2.5,3.6-2.2
			c1.3,0.2,2.8,1,4.2,2c0.4,0.3,0.8,0.6,1.2,0.9c3.2,2.7,5.9,6.3,5.9,6.3s0.8-2.2,1.5-2.2c0.7,0,1.4,2.1,1.4,2.1s2.8-3.5,5.6-3.5
			c0.3,0,0.8,0.1,1.2,0.2c0.2,0.1,0.4,0.1,0.6,0.2c0.6,0.3,1.3,0.6,2.1,1c0.6,0.4,1.3,0.8,1.9,1.2C83.9,162.3,85.8,163.9,85.8,163.9
			z"/>
		<path class="st113" d="M77.1,158.5c0.2,0.1,0.4,0.1,0.6,0.2l-1.1,3.8L77.1,158.5z"/>
		<path class="st113" d="M81.7,160.9l-3.6,2.3l1.7-3.5C80.4,160.1,81.1,160.5,81.7,160.9z"/>
		<path class="st113" d="M52.6,154.8l3.6,6.2l-3.9-5.8C52.4,155.1,52.5,154.9,52.6,154.8z"/>
		<path class="st113" d="M63.3,161.7l-2.9-7.2c0.4,0.3,0.8,0.6,1.2,0.9L63.3,161.7z"/>
		<linearGradient id="SVGID_5_" gradientUnits="userSpaceOnUse" x1="41.0233" y1="90.8504" x2="44.1722" y2="95.276">
			<stop  offset="0" style="stop-color:#DCD726"/>
			<stop  offset="1" style="stop-color:#007C40"/>
		</linearGradient>
		<path class="st114" d="M33.7,80.3c2.1-0.7-3-8-5-7S30.7,81.3,33.7,80.3z"/>
		<linearGradient id="SVGID_6_" gradientUnits="userSpaceOnUse" x1="43.9937" y1="88.7369" x2="47.1427" y2="93.1625">
			<stop  offset="0" style="stop-color:#DCD726"/>
			<stop  offset="1" style="stop-color:#007C40"/>
		</linearGradient>
		<path class="st115" d="M35.2,78.2c1.4,0.1,0.3-5.4-1.1-5.4C32.7,72.9,33.2,78,35.2,78.2z"/>
	</g>
	<path class="st116" d="M336.2,153.3c5,0,10-1,11,0s2,3,2,4s-15.8,2-15.8,2l-6.2-2L336.2,153.3z"/>
	<g>
		<path class="st117" d="M341.7,153.1c0.1,1.6-5.4,5.4-7,6c-1.6,0.6-7.4,0-7.4,0s-3.7-2.3-5.7-4.7c-0.5-0.7-0.9-1.3-1.1-2
			c-0.8-3.1,1.1-13.4,1.6-14.1c0.5-0.7,15.4-5.8,17-4.8c0.2,0.1,0.4,0.6,0.6,1.2c0,0,0,0,0,0C341,138.8,341.6,151.7,341.7,153.1z"/>
		<path class="st118" d="M322.8,138.7c0.1,0.6,8.2,3.8,9.1,3.8c1,0,7.7-7.6,7-8.4C338.2,133.3,322.5,136.8,322.8,138.7z"/>
		<path class="st112" d="M341.7,153.1c0.1,1.6-5.4,5.4-7,6c-1.6,0.6-7.4,0-7.4,0s-3.7-2.3-5.7-4.7c2.9,1.1,9.1,3,12.3,1.4
			c4.2-2.2-0.8-12.3-0.4-12.7s5.8-9.3,6.3-8.4c0,0,0,0,0,0C341,138.8,341.6,151.7,341.7,153.1z"/>
		<g class="st119">
			<path class="st120" d="M326.8,150.4c-0.2,0.9-1.1,1.6-2,1.4c-0.9-0.2-1.6-1.1-1.4-2c0.2-0.9,1.1-1.6,2-1.4
				C326.3,148.6,326.9,149.5,326.8,150.4z"/>
			<path class="st120" d="M328.6,146.2c-0.1,0.4-0.3,0.7-0.4,0.6c-0.2,0-0.3-0.4-0.2-0.7s0.3-0.7,0.4-0.6
				C328.6,145.5,328.6,145.8,328.6,146.2z"/>
			<path class="st120" d="M332.1,144.4c-0.2,0.9-0.8,1.5-1.3,1.4c-0.6-0.1-0.9-0.9-0.7-1.8c0.2-0.9,0.8-1.5,1.3-1.4
				C331.9,142.7,332.2,143.5,332.1,144.4z"/>
			<path class="st120" d="M331.3,147.7c0,0.2-0.2,0.3-0.3,0.3c-0.1,0-0.2-0.2-0.1-0.4c0-0.2,0.2-0.3,0.3-0.3
				C331.2,147.4,331.3,147.5,331.3,147.7z"/>
			<path class="st120" d="M333,148.3c0,0.2-0.1,0.3-0.2,0.3c-0.1,0-0.1-0.2-0.1-0.4c0-0.2,0.1-0.3,0.2-0.3
				C333,148,333,148.1,333,148.3z"/>
		</g>
	</g>
	<g>
		<linearGradient id="SVGID_7_" gradientUnits="userSpaceOnUse" x1="191.5313" y1="161.5791" x2="192.0009" y2="163.8799">
			<stop  offset="0" style="stop-color:#AAA835"/>
			<stop  offset="1" style="stop-color:#1A4923"/>
		</linearGradient>
		<path class="st121" d="M194.4,154.2h-7.3c0,0-0.7-0.3-1.4-0.6c0,0,0,0,0,0c-0.3-0.1-0.6-0.3-0.9-0.5c0,0,0,0,0,0
			c-0.9-0.6-1.6-1.3-0.9-1.8c1-0.8,2.3,0.2,3,1l0,0l0,0c0.3,0.3,0.4,0.5,0.4,0.5c0,0,0-0.1-0.1-0.2l0,0c0,0,0,0,0,0c0,0,0,0,0,0
			c0,0,0,0,0,0c-0.2-0.5-0.7-1.6-0.2-2c0.3-0.2,0.6,0.2,0.8,0.6c0,0,0,0,0,0c0,0.1,0.1,0.1,0.1,0.2c0,0,0,0,0-0.1c0,0,0,0,0,0
			c0,0,0-0.1,0-0.1l0,0c-0.3-1.2-0.5-2.8,1.2-3c1.5-0.2,2.1,1.2,2.3,2.3c0,0,0,0,0,0c0,0.1,0,0.2,0,0.2c0,0,0,0,0,0c0,0,0,0.1,0,0.1
			c0,0,0,0,0,0c0.1,0.7,0.1,1.2,0.1,1.2s0.8-2.7,1.5-2.7c0.7,0,0,3.5,0,3.5s1.1-2.2,1.9-2.2C195.8,150.6,194.4,154.2,194.4,154.2z"
			/>
		<path class="st113" d="M184.8,153c-0.9-0.6-1.6-1.3-0.9-1.8c1-0.8,2.3,0.2,3,1l0,0c-0.1,0-2.2-1.6-2.9-0.7
			C183.6,152,184.2,152.6,184.8,153z"/>
		<path class="st113" d="M191.4,150.4c-0.2-0.9-1.1-2.3-2.5-2.1c-1.5,0.3-1,2.8-1,2.8l0,0c-0.3-1.2-0.5-2.8,1.2-3
			C190.6,147.9,191.2,149.3,191.4,150.4z"/>
		<path class="st113" d="M187.9,151.1c-0.1-0.2-0.4-0.6-0.7-0.4c-0.4,0.3,0.1,1.4,0.2,1.7c0,0,0,0,0,0c-0.2-0.5-0.7-1.6-0.2-2
			C187.4,150.3,187.7,150.7,187.9,151.1z"/>
		<path class="st117" d="M193.1,154.4c0,0,1-1,0.7-1.3c-0.3-0.3-1.2,0.6-1.2,0.6s0.7-0.7,0.6-0.9c-0.1-0.2-0.7,0.8-0.7,0.8
			s0.3-1,0-1.1c-0.3-0.1-1.9,1.7-1.9,1.7H189c0,0,0.7-0.8,0.5-1.1c-0.1-0.3-0.5,0.8-0.5,0.8s0.5-1.3,0.2-1.7
			c-0.3-0.5-0.8,1.5-0.8,1.5s0.1-0.7,0-0.7c-0.1,0-0.3,0.8-0.3,0.8s-0.1-1.9-0.5-1.7c-0.4,0.1,0,2.3,0,2.3H193.1z"/>
	</g>
	<g>
		<linearGradient id="SVGID_8_" gradientUnits="userSpaceOnUse" x1="155.989" y1="164.7426" x2="156.4586" y2="167.0434">
			<stop  offset="0" style="stop-color:#AAA835"/>
			<stop  offset="1" style="stop-color:#1A4923"/>
		</linearGradient>
		<path class="st122" d="M158.8,157.3h-7.3c0,0-0.7-0.3-1.4-0.6c0,0,0,0,0,0c-0.3-0.1-0.6-0.3-0.9-0.5c0,0,0,0,0,0
			c-0.9-0.6-1.6-1.3-0.9-1.8c1-0.8,2.3,0.2,3,1l0,0l0,0c0.3,0.3,0.4,0.5,0.4,0.5c0,0,0-0.1-0.1-0.2l0,0c0,0,0,0,0,0c0,0,0,0,0,0
			c0,0,0,0,0,0c-0.2-0.5-0.7-1.6-0.2-2c0.3-0.2,0.6,0.2,0.8,0.6c0,0,0,0,0,0c0,0.1,0.1,0.1,0.1,0.2c0,0,0,0,0-0.1c0,0,0,0,0,0
			c0,0,0-0.1,0-0.1l0,0c-0.3-1.2-0.5-2.8,1.2-3c1.5-0.2,2.1,1.2,2.3,2.3c0,0,0,0,0,0c0,0.1,0,0.2,0,0.2c0,0,0,0,0,0c0,0,0,0.1,0,0.1
			c0,0,0,0,0,0c0.1,0.7,0.1,1.2,0.1,1.2s0.8-2.7,1.5-2.7c0.7,0,0,3.5,0,3.5s1.1-2.2,1.9-2.2C160.3,153.8,158.8,157.3,158.8,157.3z"
			/>
		<path class="st113" d="M149.3,156.2c-0.9-0.6-1.6-1.3-0.9-1.8c1-0.8,2.3,0.2,3,1l0,0c-0.1,0-2.2-1.6-2.9-0.7
			C148.1,155.2,148.7,155.8,149.3,156.2z"/>
		<path class="st113" d="M155.9,153.6c-0.2-0.9-1.1-2.3-2.5-2.1c-1.5,0.3-1,2.8-1,2.8l0,0c-0.3-1.2-0.5-2.8,1.2-3
			C155.1,151.1,155.7,152.4,155.9,153.6z"/>
		<path class="st113" d="M152.4,154.3c-0.1-0.2-0.4-0.6-0.7-0.4c-0.4,0.3,0.1,1.4,0.2,1.7c0,0,0,0,0,0c-0.2-0.5-0.7-1.6-0.2-2
			C151.8,153.4,152.1,153.8,152.4,154.3z"/>
		<path class="st117" d="M157.6,157.6c0,0,1-1,0.7-1.3c-0.3-0.3-1.2,0.6-1.2,0.6s0.7-0.7,0.6-0.9c-0.1-0.2-0.7,0.8-0.7,0.8
			s0.3-1,0-1.1c-0.3-0.1-1.9,1.7-1.9,1.7h-1.4c0,0,0.7-0.8,0.5-1.1c-0.1-0.3-0.5,0.8-0.5,0.8s0.5-1.3,0.2-1.7
			c-0.3-0.5-0.8,1.5-0.8,1.5s0.1-0.7,0-0.7s-0.3,0.8-0.3,0.8s-0.1-1.9-0.5-1.7c-0.4,0.1,0,2.3,0,2.3H157.6z"/>
	</g>
</g>
</svg>
